<svg width="85" height="64" viewBox="0 0 85 64" fill="none" xmlns="http://www.w3.org/2000/svg">
<path d="M84.28 10.5301L64.8929 31.5451L45.749 43.0921L44.34 35.4831L75.886 12.1121L76.452 12.9551L82.075 8.45508L84.28 10.5301Z" fill="#EAEAEA"/>
<path d="M45.541 43.543L44.028 35.371L44.166 35.271L75.954 11.716L76.508 12.5471L82.098 8.07104L84.673 10.5191L65.0439 31.788L45.541 43.543ZM44.641 35.61L45.941 42.6421L64.7159 31.326L83.884 10.542L82.071 8.82204L76.382 13.371L75.816 12.5171L44.641 35.61Z" fill="#3A3531"/>
<path d="M81.45 12.285L81.023 11.927L82.258 10.437L82.05 10.218L80.272 11.488L79.949 11.038L82.108 9.49097L83.02 10.403L81.45 12.285Z" fill="#3A3531"/>
<path d="M45.0669 36.049L71.3669 17.459L74.8889 18.002L71.9329 20.843L69.9579 20.277L46.2989 36.616L45.0669 36.049Z" fill="#2AB5E3"/>
<path d="M48.866 37.7509L60.955 28.4509H65.043L51.095 39.3739L48.866 37.7509Z" fill="#2AB5E3"/>
<path d="M0.392944 8.02505L18.256 30.3561L36.5349 43.2311L38.4749 35.772L8.67496 10.1961L8.06296 10.9811L2.76294 6.08105L0.392944 8.02505Z" fill="#EAEAEA"/>
<path d="M36.707 43.7041L18.036 30.5411L0 7.9791L2.771 5.7041L8.02499 10.5651L8.63699 9.78011L38.797 35.6681L36.707 43.7041ZM18.452 30.1601L36.373 42.7811L38.173 35.8811L8.71799 10.6041L8.09399 11.4041L2.759 6.4621L0.799988 8.07111L18.452 30.1601Z" fill="#3A3531"/>
<path d="M3.09503 9.96503L1.68604 7.99104L2.64404 7.11304L4.68802 8.82204L4.33002 9.26103L2.65604 7.86104L2.43704 8.06904L3.55704 9.63904L3.09503 9.96503Z" fill="#3A3531"/>
<path d="M37.7111 36.28L12.7821 15.854L9.23706 16.143L11.9741 19.18L13.9951 18.753L36.4191 36.731L37.7111 36.28Z" fill="#2AB5E3"/>
<path d="M33.797 37.6892L22.389 27.5512L18.313 27.2622L31.465 39.1552L33.797 37.6892Z" fill="#2AB5E3"/>
<path d="M46.729 51.9709C47.8192 51.9709 48.703 51.0872 48.703 49.9969C48.703 48.9067 47.8192 48.0229 46.729 48.0229C45.6388 48.0229 44.755 48.9067 44.755 49.9969C44.755 51.0872 45.6388 51.9709 46.729 51.9709Z" fill="#2AB5E3"/>
<path d="M46.729 52.3869C46.2563 52.3869 45.7942 52.2467 45.4012 51.9841C45.0082 51.7215 44.7018 51.3482 44.5209 50.9115C44.3401 50.4748 44.2927 49.9943 44.3849 49.5307C44.4771 49.0671 44.7048 48.6412 45.039 48.3069C45.3733 47.9727 45.7991 47.7451 46.2627 47.6529C46.7263 47.5606 47.2069 47.608 47.6436 47.7888C48.0803 47.9697 48.4536 48.2761 48.7162 48.6691C48.9788 49.0622 49.119 49.5242 49.119 49.9969C49.1177 50.6304 48.8655 51.2375 48.4176 51.6855C47.9696 52.1334 47.3625 52.3856 46.729 52.3869V52.3869ZM46.729 48.4499C46.4231 48.4499 46.1239 48.5406 45.8695 48.7106C45.6151 48.8806 45.4168 49.1222 45.2998 49.4049C45.1827 49.6876 45.1521 49.9986 45.2117 50.2987C45.2714 50.5988 45.4187 50.8745 45.6351 51.0908C45.8514 51.3072 46.1271 51.4545 46.4272 51.5142C46.7273 51.5739 47.0383 51.5433 47.321 51.4262C47.6037 51.3091 47.8453 51.1108 48.0153 50.8564C48.1853 50.602 48.276 50.3029 48.276 49.9969C48.276 49.5866 48.113 49.1932 47.8229 48.903C47.5328 48.6129 47.1393 48.4499 46.729 48.4499V48.4499Z" fill="#3A3531"/>
<path d="M37.157 52.248C38.2472 52.248 39.131 51.3643 39.131 50.274C39.131 49.1838 38.2472 48.3 37.157 48.3C36.0668 48.3 35.183 49.1838 35.183 50.274C35.183 51.3643 36.0668 52.248 37.157 52.248Z" fill="#2AB5E3"/>
<path d="M37.157 52.676C36.6843 52.676 36.2222 52.5358 35.8291 52.2732C35.4361 52.0106 35.1298 51.6373 34.9489 51.2006C34.768 50.7639 34.7207 50.2833 34.8129 49.8197C34.9051 49.3561 35.1327 48.9303 35.4669 48.596C35.8012 48.2618 36.2271 48.0341 36.6907 47.9419C37.1543 47.8497 37.6348 47.897 38.0716 48.0779C38.5083 48.2588 38.8816 48.5652 39.1442 48.9582C39.4068 49.3512 39.547 49.8133 39.547 50.286C39.5456 50.9194 39.2934 51.5266 38.8455 51.9745C38.3976 52.4224 37.7904 52.6747 37.157 52.676ZM37.157 48.727C36.851 48.727 36.5519 48.8177 36.2975 48.9877C36.0431 49.1577 35.8448 49.3993 35.7277 49.682C35.6106 49.9647 35.58 50.2757 35.6397 50.5758C35.6994 50.8759 35.8467 51.1515 36.0631 51.3679C36.2794 51.5842 36.555 51.7316 36.8551 51.7913C37.1552 51.851 37.4663 51.8203 37.749 51.7032C38.0317 51.5861 38.2733 51.3879 38.4433 51.1335C38.6133 50.8791 38.7039 50.58 38.7039 50.274C38.7039 49.8637 38.541 49.4702 38.2509 49.1801C37.9608 48.89 37.5672 48.727 37.157 48.727Z" fill="#3A3531"/>
<path d="M60.5888 33.028L50.8649 36.792L52.2904 40.4747L62.0143 36.7107L60.5888 33.028Z" fill="white"/>
<path d="M52.1219 40.83L50.4939 36.6299L60.7359 32.6689L62.3639 36.869L52.1219 40.83ZM51.2219 36.95L52.4459 40.1019L61.6369 36.5459L60.4129 33.394L51.2219 36.95Z" fill="#3A3531"/>
<path d="M53.911 55.286L47.4911 52.469C47.2172 52.3474 47.002 52.1232 46.8918 51.8445C46.7816 51.5658 46.7853 51.255 46.9021 50.979L47.4331 49.743C47.5546 49.4691 47.7789 49.2539 48.0576 49.1438C48.3363 49.0336 48.6471 49.0373 48.9231 49.154L55.343 51.971L53.911 55.286Z" fill="white"/>
<path d="M54.061 55.6631L47.375 52.7301C47.032 52.5763 46.7627 52.2946 46.6246 51.945C46.4865 51.5954 46.4906 51.2057 46.636 50.8591L47.167 49.6231C47.2409 49.4517 47.3484 49.2969 47.4833 49.1679C47.6181 49.0389 47.7775 48.9383 47.952 48.8721C48.1247 48.8025 48.3095 48.7678 48.4957 48.7699C48.6819 48.7719 48.8658 48.8107 49.037 48.8841L55.711 51.8171L54.061 55.6631ZM48.484 49.3351C48.3776 49.3375 48.2722 49.3571 48.172 49.3931C47.9604 49.4799 47.7908 49.6456 47.699 49.8551L47.168 51.0911C47.0822 51.2996 47.0813 51.5333 47.1653 51.7425C47.2494 51.9517 47.4118 52.1199 47.618 52.2111L53.784 54.9111L54.996 52.1051L48.8299 49.4051C48.7196 49.3622 48.6024 49.3398 48.484 49.3391V49.3351Z" fill="#3A3531"/>
<path d="M35.3439 51.822L26.6379 52.215V48.578L36.2679 48.301C36.401 48.3025 36.5322 48.3328 36.6525 48.3898C36.7728 48.4468 36.8794 48.5291 36.9648 48.6311C37.0503 48.7332 37.1127 48.8524 37.1478 48.9808C37.1828 49.1092 37.1897 49.2437 37.1679 49.375L36.325 51.003C35.887 51.545 35.8289 51.822 35.3439 51.822Z" fill="white"/>
<path d="M26.361 52.5151V48.3151L36.2679 48.0261C36.4429 48.0253 36.616 48.0627 36.775 48.1358C36.934 48.209 37.0751 48.3159 37.1884 48.4493C37.3017 48.5827 37.3845 48.7393 37.4308 48.908C37.4772 49.0767 37.4861 49.2536 37.457 49.4261L37.4449 49.4721L36.545 51.2041C36.445 51.3311 36.36 51.4461 36.279 51.5391C36.1894 51.7115 36.0556 51.8569 35.8913 51.9604C35.727 52.0639 35.5381 52.1218 35.344 52.1281L26.361 52.5151ZM26.927 48.8551V51.9231L35.345 51.5421C35.564 51.5421 35.599 51.4961 35.83 51.1841C35.899 51.0921 35.9919 50.9761 36.0959 50.8491L36.904 49.2901C36.9121 49.2034 36.9031 49.1159 36.8773 49.0327C36.8516 48.9495 36.8097 48.8721 36.754 48.8051C36.696 48.7362 36.6235 48.6809 36.5418 48.643C36.4601 48.6052 36.371 48.5858 36.2809 48.5861L26.927 48.8551Z" fill="#3A3531"/>
<path d="M23.0385 33.0053L21.6129 36.688L31.3368 40.452L32.7624 36.7693L23.0385 33.0053Z" fill="white"/>
<path d="M31.488 40.8181L21.246 36.854L22.874 32.6541L33.116 36.6151L31.488 40.8181ZM21.974 36.518L31.165 40.074L32.389 36.9221L23.198 33.3661L21.974 36.518Z" fill="#3A3531"/>
<path d="M30.31 49.4541L29.663 48.8881C29.3885 48.6422 29.2058 48.3102 29.1449 47.9468C29.0841 47.5833 29.1486 47.21 29.328 46.8881L29.582 46.4151C29.7319 46.1379 29.8007 45.824 29.7803 45.5095C29.76 45.195 29.6514 44.8927 29.467 44.6371L28.878 43.8521C28.8166 43.7718 28.7395 43.7049 28.6514 43.6554C28.5633 43.6059 28.4661 43.5748 28.3656 43.564C28.2652 43.5533 28.1636 43.5631 28.067 43.5928C27.9705 43.6226 27.881 43.6716 27.804 43.7371L26.372 44.9731C26.5826 45.098 26.7604 45.2713 26.8909 45.4785C27.0214 45.6857 27.1008 45.921 27.1225 46.1649C27.1442 46.4088 27.1076 46.6544 27.0158 46.8814C26.9239 47.1084 26.7794 47.3103 26.5941 47.4705C26.4089 47.6306 26.1882 47.7445 25.9504 47.8026C25.7125 47.8607 25.4642 47.8615 25.2259 47.8048C24.9877 47.7481 24.7664 47.6356 24.5801 47.4766C24.3939 47.3175 24.2482 47.1165 24.155 46.8901L16.442 53.6221C16.2745 53.7671 16.1382 53.9445 16.0412 54.1437C15.9443 54.3429 15.8888 54.5597 15.878 54.781C15.8673 55.0022 15.9015 55.2234 15.9787 55.431C16.0558 55.6387 16.1743 55.8285 16.327 55.9891L20.415 60.2381C21.062 60.9191 20.785 61.7851 22.805 60.2151L30.414 51.7631C30.5607 51.6056 30.6745 51.4204 30.7488 51.2185C30.823 51.0165 30.8563 50.8017 30.8466 50.5867C30.8369 50.3717 30.7845 50.1608 30.6924 49.9664C30.6002 49.7719 30.4702 49.5977 30.31 49.4541Z" fill="white"/>
<path d="M21.235 61.5319C21.1847 61.5342 21.1343 61.5301 21.0849 61.5199C20.9277 61.4773 20.7819 61.4003 20.6581 61.2945C20.5343 61.1886 20.4355 61.0566 20.3689 60.9079C20.2908 60.7774 20.2018 60.6536 20.1029 60.538L16.015 56.289C15.8234 56.0907 15.6744 55.8553 15.5771 55.5974C15.4798 55.3394 15.4362 55.0644 15.449 54.789C15.4595 54.5098 15.527 54.2357 15.6474 53.9836C15.7678 53.7315 15.9384 53.5066 16.1489 53.323L24.3009 46.21L24.532 46.7299C24.5991 46.8971 24.7053 47.0458 24.8415 47.1636C24.9777 47.2815 25.1401 47.3651 25.3152 47.4075C25.4903 47.4499 25.673 47.4498 25.8481 47.4073C26.0231 47.3649 26.1855 47.2812 26.3217 47.1633C26.4579 47.0454 26.5639 46.8966 26.631 46.7295C26.6981 46.5623 26.7243 46.3815 26.7074 46.2021C26.6905 46.0228 26.631 45.8501 26.5339 45.6984C26.4368 45.5466 26.3048 45.4203 26.1489 45.3299L25.664 45.03L27.535 43.413C27.6582 43.3079 27.8016 43.2291 27.9563 43.1815C28.1111 43.1338 28.274 43.1183 28.4349 43.1359C28.5898 43.1525 28.7395 43.2011 28.8747 43.2786C29.0098 43.356 29.1274 43.4607 29.22 43.586L29.8089 44.371C30.0405 44.691 30.1773 45.0698 30.2039 45.4639C30.2304 45.8581 30.1455 46.2518 29.959 46.6L29.7049 47.073C29.5713 47.3122 29.5225 47.5896 29.5665 47.8601C29.6104 48.1306 29.7445 48.3783 29.9469 48.5629L30.5939 49.129C30.7968 49.3129 30.9613 49.535 31.0782 49.7826C31.195 50.0302 31.2619 50.2985 31.2749 50.572C31.2846 50.8428 31.2383 51.1128 31.1391 51.365C31.0398 51.6172 30.8896 51.8463 30.6979 52.038L23.043 60.525C22.147 61.255 21.639 61.5319 21.235 61.5319ZM24.041 47.5369L16.6969 53.945C16.5702 54.0542 16.4678 54.1888 16.3961 54.34C16.3245 54.4912 16.2853 54.6557 16.281 54.823C16.2728 54.9845 16.2983 55.1461 16.356 55.2972C16.4137 55.4484 16.5022 55.5859 16.6159 55.7009L20.704 59.9499C20.8512 60.1003 20.9755 60.2714 21.0729 60.4579C21.1209 60.539 21.1751 60.6163 21.235 60.689C21.281 60.701 21.5349 60.654 22.4939 59.904L30.069 51.486C30.1815 51.372 30.2701 51.2367 30.3295 51.0879C30.3889 50.9392 30.418 50.7801 30.415 50.62C30.4106 50.4593 30.3728 50.3014 30.3039 50.1563C30.235 50.0111 30.1366 49.8819 30.015 49.7769L29.3909 49.211C29.0451 48.8993 28.8147 48.4798 28.7372 48.0208C28.6597 47.5617 28.7396 47.0899 28.9639 46.682L29.2059 46.2089C29.3184 46.0023 29.3704 45.7681 29.3561 45.5333C29.3418 45.2985 29.2617 45.0724 29.125 44.8809L28.536 44.0959C28.5118 44.0616 28.4809 44.0327 28.4451 44.0109C28.4094 43.989 28.3695 43.9747 28.328 43.969C28.236 43.9618 28.1448 43.9909 28.074 44.0499L27.023 44.962C27.3618 45.3214 27.5516 45.796 27.554 46.2899C27.5521 46.8131 27.3434 47.3143 26.9734 47.6841C26.6034 48.0539 26.1021 48.2624 25.579 48.2639C25.2842 48.2674 24.9926 48.2038 24.7261 48.0778C24.4596 47.9519 24.2253 47.7669 24.041 47.5369V47.5369Z" fill="#3A3531"/>
<path d="M25.5989 47.884C26.008 47.8801 26.3992 47.7159 26.6885 47.4266C26.9778 47.1373 27.142 46.7461 27.1459 46.337C27.1465 46.0683 27.0763 45.8042 26.9426 45.5711C26.8088 45.338 26.6162 45.1442 26.3839 45.009L24.1549 46.949C24.2827 47.2253 24.4862 47.4598 24.7418 47.6252C24.9973 47.7907 25.2945 47.8804 25.5989 47.884V47.884Z" fill="#2AB5E3"/>
<path d="M25.5989 48.299C25.2167 48.2994 24.8424 48.1896 24.5209 47.9828C24.1994 47.776 23.9442 47.481 23.7859 47.133L23.6479 46.844L26.338 44.488L26.6039 44.638C26.9042 44.8082 27.1536 45.0555 27.3263 45.3544C27.4989 45.6533 27.5886 45.9929 27.5859 46.338C27.5807 46.861 27.3688 47.3607 26.9966 47.728C26.6243 48.0954 26.1219 48.3007 25.5989 48.299V48.299ZM24.71 47.0291C24.8561 47.2126 25.0557 47.3462 25.281 47.4116C25.5063 47.477 25.7464 47.4709 25.9681 47.3941C26.1899 47.3173 26.3823 47.1736 26.5189 46.9828C26.6555 46.7921 26.7296 46.5637 26.731 46.329C26.7305 46.0351 26.6145 45.7532 26.408 45.544L24.71 47.0291Z" fill="#3A3531"/>
<path d="M22.562 59.4091L29.917 51.2451C29.9646 51.0371 29.9553 50.8202 29.8902 50.617C29.8251 50.4138 29.7066 50.2318 29.547 50.0901C29.513 50.0791 23.774 52.1111 22.562 59.4091Z" fill="#EAEAEA"/>
<path d="M18.5669 61.428L18.2319 61.255C16.2172 60.325 14.3876 59.0375 12.8319 57.455V57.455C11.8509 56.774 11.9539 55.169 13.0319 54.187L15.7919 51.647C16.1024 51.3103 16.522 51.0942 16.9764 51.0371C17.4308 50.98 17.8908 51.0855 18.2749 51.335V51.335C19.7714 52.1167 21.1322 53.1345 22.3049 54.349L22.7779 54.822C23.101 55.128 23.3102 55.5349 23.3711 55.9757C23.432 56.4165 23.341 56.8649 23.1129 57.247L21.5889 60.238C20.9569 61.509 19.4909 62.075 18.5669 61.428Z" fill="white"/>
<path d="M19.456 62.1221C19.0632 62.1233 18.6785 62.0111 18.348 61.7991L18.0359 61.6371C15.9849 60.6938 14.1216 59.3871 12.5359 57.7801C12.2942 57.6034 12.095 57.3748 11.9531 57.1111C11.8113 56.8474 11.7302 56.5552 11.7159 56.2561C11.6955 55.8102 11.7746 55.3653 11.9476 54.9538C12.1205 54.5423 12.383 54.1745 12.7159 53.8771L15.4759 51.3371C15.8546 50.9381 16.3607 50.6839 16.9069 50.6185C17.453 50.5532 18.0049 50.6807 18.4669 50.9791C19.9906 51.7794 21.3751 52.8205 22.5669 54.0621L23.029 54.5241C23.4203 54.8905 23.6765 55.3782 23.7562 55.9083C23.8358 56.4384 23.7343 56.9799 23.4679 57.4451L21.9439 60.4361C21.7576 60.8229 21.4915 61.1659 21.1632 61.4425C20.8349 61.7191 20.4517 61.9231 20.0389 62.0411C19.8493 62.095 19.6531 62.1223 19.456 62.1221V62.1221ZM17.2849 51.4411C16.8224 51.4633 16.3834 51.6518 16.0489 51.9721L13.2889 54.5011C13.0493 54.7128 12.8597 54.9752 12.734 55.2692C12.6082 55.5633 12.5495 55.8816 12.5619 56.2011C12.5677 56.3801 12.6145 56.5553 12.6985 56.7134C12.7826 56.8715 12.9018 57.0082 13.047 57.1131L13.1049 57.1711C14.6284 58.7198 16.4201 59.9795 18.3929 60.8891L18.793 61.0971C18.9435 61.1944 19.1132 61.2581 19.2906 61.284C19.468 61.3098 19.6489 61.2973 19.8209 61.2471C20.1168 61.1584 20.3909 61.0089 20.6256 60.8081C20.8603 60.6073 21.0505 60.3597 21.184 60.0811L22.7079 57.0901C22.8898 56.7958 22.9671 56.4487 22.9273 56.1051C22.8876 55.7614 22.7331 55.4412 22.4889 55.1961L22.4539 55.1611L21.9809 54.6881C20.8416 53.5021 19.5153 52.5113 18.055 51.7551L17.986 51.7091C17.7963 51.5316 17.5446 51.4354 17.2849 51.4411V51.4411Z" fill="#3A3531"/>
<path d="M62.1349 63.345C61.5915 63.3101 61.0665 63.1351 60.6109 62.837L53.4869 58.449C52.929 58.0701 52.5332 57.4962 52.3772 56.8401C52.2212 56.1841 52.3164 55.4934 52.6439 54.904L53.0369 54.119L52.4829 53.8299C52.3352 53.7594 52.2031 53.66 52.0944 53.5377C51.9857 53.4154 51.9025 53.2725 51.8498 53.1176C51.7971 52.9627 51.7758 52.7988 51.7873 52.6355C51.7989 52.4723 51.8429 52.3129 51.9169 52.167L52.6789 50.585C52.7821 50.3732 52.9433 50.1951 53.1436 50.0712C53.344 49.9473 53.5753 49.8827 53.8109 49.885C53.995 49.8749 54.1784 49.9147 54.3419 50L54.9649 50.277C55.1793 49.966 55.4654 49.7114 55.7991 49.5345C56.1328 49.3576 56.5042 49.2638 56.8819 49.261C57.1294 49.2512 57.3764 49.2903 57.6089 49.376L66.2579 52.447C67.7239 53.036 68.3479 54.502 67.9779 56.396L67.9199 56.65C67.2825 58.8104 66.0066 60.7277 64.2599 62.15C64.0173 62.4955 63.7006 62.7825 63.333 62.9901C62.9654 63.1977 62.5561 63.3207 62.1349 63.35V63.345Z" fill="white"/>
<path d="M56.8669 49.905C57.0586 49.9035 57.2494 49.9308 57.4329 49.986L66.081 53.0569C67.374 53.5879 67.7089 54.916 67.4669 56.383L67.4089 56.6139C66.7914 58.6586 65.5772 60.4722 63.9219 61.822C63.7171 62.094 63.4589 62.3213 63.1632 62.49C62.8674 62.6587 62.5403 62.7652 62.2019 62.8029C61.7603 62.7682 61.3348 62.6212 60.9659 62.3759L53.8659 58.0109C53.4259 57.7073 53.1132 57.2521 52.9876 56.7325C52.8619 56.2128 52.9322 55.6651 53.1849 55.194L53.8659 53.866L52.792 53.3579C52.6321 53.2791 52.5096 53.1404 52.4513 52.972C52.3929 52.8035 52.4032 52.6188 52.4799 52.4579L53.2419 50.8759C53.2983 50.7602 53.3874 50.6635 53.4981 50.5978C53.6088 50.5321 53.7363 50.5001 53.8649 50.5059C53.96 50.5085 54.0538 50.5282 54.1419 50.564L55.2419 51.0949L55.4729 50.668C55.6158 50.4264 55.8214 50.2281 56.0679 50.0939C56.3144 49.9598 56.5925 49.8948 56.8729 49.9059L56.8669 49.905ZM56.8729 48.7859C56.4885 48.7834 56.1076 48.86 55.754 49.011C55.4005 49.1621 55.0819 49.3843 54.818 49.6639L54.5869 49.5489C54.3411 49.4345 54.0731 49.3754 53.8019 49.3759C53.4628 49.3765 53.1306 49.4719 52.8429 49.6515C52.5551 49.831 52.3234 50.0876 52.1739 50.392L51.4119 51.974C51.2125 52.4096 51.1836 52.9041 51.331 53.3599C51.4933 53.8161 51.8294 54.1895 52.2659 54.399L52.3239 54.422L52.1849 54.6989C51.798 55.4094 51.6901 56.2387 51.8823 57.0245C52.0744 57.8103 52.5528 58.4962 53.2239 58.948L53.2469 58.9709L53.2699 58.994L60.3699 63.3589C60.9071 63.7113 61.5283 63.9146 62.1699 63.948C62.6521 63.9078 63.1216 63.7729 63.5517 63.551C63.9817 63.3291 64.3637 63.0247 64.6759 62.655C66.4886 61.161 67.8122 59.1583 68.4759 56.905L68.5339 56.6739V56.628C68.9609 54.457 68.1989 52.7369 66.4789 52.0669H66.4329L57.7839 48.9959C57.5072 48.8378 57.1898 48.7654 56.8719 48.788L56.8729 48.7859Z" fill="#3A3531"/>
<path d="M54.8701 52.2121L54.4771 52.9391C54.4589 52.9725 54.4342 53.002 54.4046 53.0259C54.375 53.0498 54.341 53.0675 54.3045 53.0782C54.2679 53.0889 54.2297 53.0923 54.1918 53.0881C54.154 53.084 54.1174 53.0724 54.0841 53.0541L53.3571 52.6611C53.3236 52.643 53.294 52.6185 53.27 52.5889C53.2461 52.5593 53.2281 52.5253 53.2174 52.4887C53.2066 52.4522 53.2032 52.4139 53.2072 52.3761C53.2113 52.3382 53.2228 52.3015 53.241 52.2681L53.634 51.5411C53.6522 51.5077 53.6769 51.4782 53.7065 51.4544C53.7361 51.4305 53.7701 51.4127 53.8067 51.402C53.8432 51.3913 53.8814 51.388 53.9193 51.3921C53.9571 51.3962 53.9937 51.4078 54.027 51.4261L54.754 51.8191C54.7881 51.8366 54.8183 51.8608 54.8428 51.8904C54.8672 51.9199 54.8854 51.954 54.8963 51.9908C54.9071 52.0275 54.9103 52.0661 54.9058 52.1041C54.9013 52.1422 54.8892 52.1789 54.8701 52.2121V52.2121Z" fill="#2AB5E3"/>
<path d="M54.2229 53.1721C54.1619 53.1747 54.1016 53.1587 54.05 53.1261L53.323 52.7331C53.2809 52.7101 53.2439 52.6788 53.2141 52.6412C53.1844 52.6036 53.1626 52.5603 53.1499 52.5141C53.1271 52.4206 53.1396 52.322 53.185 52.2371L53.578 51.5101C53.601 51.468 53.6322 51.431 53.6698 51.4013C53.7075 51.3716 53.7507 51.3497 53.797 51.3371C53.8905 51.3143 53.9891 51.3267 54.0739 51.3721L54.8009 51.7651C54.8815 51.8078 54.9432 51.8792 54.974 51.9651C54.9913 52.0145 54.9971 52.0671 54.9911 52.1191C54.985 52.1711 54.9671 52.221 54.9389 52.2651L54.5459 52.9921C54.5229 53.0342 54.4917 53.0711 54.4541 53.1009C54.4164 53.1306 54.3732 53.1524 54.3269 53.1651C54.2929 53.1731 54.2578 53.1755 54.2229 53.1721V53.1721ZM53.888 51.4631C53.8679 51.4611 53.8477 51.4653 53.83 51.4751C53.8001 51.4836 53.7724 51.4982 53.7484 51.518C53.7245 51.5378 53.7049 51.5624 53.691 51.5901L53.2979 52.3171C53.2829 52.3409 53.2731 52.3677 53.2691 52.3956C53.2652 52.4235 53.2671 52.452 53.2749 52.4791C53.2835 52.5089 53.2981 52.5367 53.3179 52.5606C53.3377 52.5845 53.3623 52.6041 53.39 52.6181L54.117 53.0111C54.141 53.0257 54.1677 53.0352 54.1956 53.0392C54.2234 53.0431 54.2518 53.0414 54.279 53.0341C54.3088 53.0255 54.3366 53.0109 54.3605 52.9911C54.3844 52.9713 54.404 52.9468 54.4179 52.9191L54.8109 52.1921C54.8411 52.1353 54.8493 52.0695 54.834 52.0071C54.8264 51.9849 54.8143 51.9646 54.7985 51.9473C54.7827 51.9301 54.7634 51.9164 54.742 51.9071L54.003 51.5141C53.9718 51.4849 53.9315 51.4672 53.889 51.4641L53.888 51.4631Z" fill="#3A3531"/>
<path d="M21.9389 55.124L21.5459 54.731C20.7537 53.901 19.8525 53.1824 18.8669 52.595C18.8938 52.795 18.8658 52.9986 18.7859 53.184C18.5516 53.4546 18.223 53.6259 17.867 53.663C17.5109 53.7002 17.1541 53.6004 16.8689 53.384C16.531 53.2028 16.2629 52.9143 16.1069 52.564L13.9129 54.564C13.7034 54.7154 13.53 54.9114 13.405 55.1377C13.2801 55.364 13.2068 55.6152 13.1902 55.8732C13.1737 56.1312 13.2144 56.3897 13.3094 56.6301C13.4045 56.8706 13.5515 57.087 13.7399 57.264C15.0415 58.5637 16.5569 59.6299 18.2199 60.416L18.4969 60.555C18.7228 60.6664 18.9693 60.73 19.2209 60.7417C19.4725 60.7534 19.7238 60.713 19.9591 60.6231C20.1943 60.5331 20.4085 60.3956 20.5881 60.219C20.7677 60.0424 20.909 59.8307 21.0029 59.597L22.2389 57.114C22.4215 56.7973 22.4913 56.428 22.4368 56.0665C22.3823 55.7051 22.2068 55.3727 21.9389 55.124V55.124Z" fill="#EAEAEA"/>
<path d="M31.626 51.268H35.171L35.9559 50.0899C35.9679 50.0779 32.735 49.859 31.626 51.268Z" fill="#EAEAEA"/>
<path d="M47.7109 51.679L47.9879 50.979C47.9879 50.979 51.2789 52.249 50.9209 53.011L47.7109 51.679Z" fill="#EAEAEA"/>
<path d="M66.81 54.697C66.81 53.565 63.7151 53.011 63.7151 53.011C63.6921 53.011 63.634 53.034 63.6 53.034C63.912 53.288 63.6581 54.108 63.0691 54.916C62.4801 55.724 61.718 56.186 61.406 55.955C61.3711 55.9229 61.3435 55.8837 61.325 55.84C61.1594 56.2945 61.0169 56.7571 60.898 57.226C60.621 58.635 63.23 61.726 63.23 61.726C64.3724 60.9527 65.3001 59.9023 65.9262 58.673C66.5523 57.4437 66.8564 56.0757 66.81 54.697V54.697Z" fill="#EAEAEA"/>
<path d="M53.634 57.3759C53.4073 57.057 53.3099 56.6642 53.3613 56.2764C53.4127 55.8886 53.6091 55.5347 53.9109 55.2859C53.9109 55.2859 57.5709 55.7589 59.1189 57.5949L60.297 58.6689L62.941 62.3059H61.509L53.634 57.3759Z" fill="#EAEAEA"/>
<path d="M51.095 42.251C52.8043 42.251 54.19 40.8654 54.19 39.156C54.19 37.4467 52.8043 36.061 51.095 36.061C49.3857 36.061 48 37.4467 48 39.156C48 40.8654 49.3857 42.251 51.095 42.251Z" fill="#2AB5E3"/>
<path d="M51.094 42.8161C50.3701 42.8161 49.6625 42.6014 49.0606 42.1993C48.4587 41.7971 47.9896 41.2255 47.7126 40.5567C47.4356 39.8879 47.3631 39.152 47.5043 38.4421C47.6455 37.7321 47.9941 37.0799 48.506 36.5681C49.0178 36.0562 49.67 35.7076 50.3799 35.5664C51.0899 35.4252 51.8258 35.4977 52.4946 35.7747C53.1634 36.0517 53.735 36.5208 54.1372 37.1227C54.5393 37.7246 54.754 38.4322 54.754 39.1561C54.7537 40.1267 54.368 41.0575 53.6817 41.7438C52.9954 42.4301 52.0646 42.8158 51.094 42.8161ZM51.094 36.6161C50.5916 36.6161 50.1005 36.765 49.6828 37.0441C49.2651 37.3232 48.9396 37.7199 48.7473 38.1841C48.5551 38.6482 48.5048 39.1589 48.6028 39.6516C48.7008 40.1443 48.9427 40.5969 49.2979 40.9521C49.6531 41.3074 50.1057 41.5493 50.5985 41.6473C51.0912 41.7453 51.6019 41.695 52.066 41.5027C52.5301 41.3105 52.9268 40.9849 53.2059 40.5672C53.485 40.1495 53.634 39.6584 53.634 39.1561C53.6341 38.8224 53.5685 38.492 53.4409 38.1838C53.3133 37.8755 53.1263 37.5954 52.8904 37.3594C52.6545 37.1234 52.3745 36.9362 52.0662 36.8085C51.758 36.6808 51.4276 36.6151 51.094 36.6151V36.6161Z" fill="#3A3531"/>
<path d="M32.505 42.251C34.2144 42.251 35.6 40.8654 35.6 39.156C35.6 37.4467 34.2144 36.061 32.505 36.061C30.7957 36.061 29.41 37.4467 29.41 39.156C29.41 40.8654 30.7957 42.251 32.505 42.251Z" fill="#2AB5E3"/>
<path d="M32.504 42.8161C31.7802 42.8161 31.0725 42.6014 30.4706 42.1993C29.8688 41.7971 29.3996 41.2255 29.1226 40.5567C28.8456 39.8879 28.7731 39.152 28.9143 38.4421C29.0555 37.7321 29.4042 37.0799 29.916 36.5681C30.4279 36.0562 31.08 35.7076 31.79 35.5664C32.5 35.4252 33.2358 35.4977 33.9046 35.7747C34.5734 36.0517 35.145 36.5208 35.5472 37.1227C35.9494 37.7246 36.164 38.4322 36.164 39.1561C36.1637 40.1267 35.7781 41.0575 35.0917 41.7438C34.4054 42.4301 33.4746 42.8158 32.504 42.8161V42.8161ZM32.504 36.6161C32.0017 36.6161 31.5105 36.765 31.0928 37.0441C30.6751 37.3232 30.3496 37.7199 30.1574 38.1841C29.9651 38.6482 29.9148 39.1589 30.0128 39.6516C30.1108 40.1443 30.3527 40.5969 30.708 40.9521C31.0632 41.3074 31.5158 41.5493 32.0085 41.6473C32.5012 41.7453 33.0119 41.695 33.476 41.5027C33.9401 41.3105 34.3369 40.9849 34.616 40.5672C34.8951 40.1495 35.044 39.6584 35.044 39.1561C35.0441 38.8224 34.9785 38.492 34.851 38.1838C34.7234 37.8755 34.5363 37.5954 34.3004 37.3594C34.0645 37.1234 33.7845 36.9362 33.4763 36.8085C33.168 36.6808 32.8377 36.6151 32.504 36.6151V36.6161Z" fill="#3A3531"/>
<path d="M22.735 37.7461C24.2908 37.7461 25.552 36.4848 25.552 34.9291C25.552 33.3733 24.2908 32.1121 22.735 32.1121C21.1792 32.1121 19.918 33.3733 19.918 34.9291C19.918 36.4848 21.1792 37.7461 22.735 37.7461Z" fill="#2AB5E3"/>
<path d="M22.736 38.1621C22.0942 38.1621 21.4668 37.9718 20.9331 37.6152C20.3995 37.2587 19.9836 36.7519 19.738 36.1589C19.4924 35.566 19.4281 34.9135 19.5533 34.2841C19.6785 33.6546 19.9876 33.0764 20.4414 32.6226C20.8952 32.1687 21.4734 31.8597 22.1029 31.7345C22.7324 31.6093 23.3848 31.6735 23.9778 31.9191C24.5707 32.1647 25.0775 32.5807 25.4341 33.1143C25.7907 33.6479 25.981 34.2753 25.981 34.9171C25.9804 35.7776 25.6384 36.6027 25.03 37.2111C24.4215 37.8195 23.5964 38.1616 22.736 38.1621ZM22.736 32.5271C22.2633 32.5271 21.8012 32.6673 21.4082 32.9299C21.0151 33.1925 20.7088 33.5658 20.5279 34.0025C20.347 34.4392 20.2997 34.9198 20.3919 35.3834C20.4841 35.847 20.7117 36.2729 21.046 36.6071C21.3802 36.9414 21.8061 37.169 22.2697 37.2612C22.7333 37.3534 23.2139 37.3061 23.6506 37.1252C24.0873 36.9443 24.4606 36.638 24.7232 36.2449C24.9858 35.8519 25.126 35.3898 25.126 34.9171C25.1246 34.2837 24.8724 33.6765 24.4245 33.2286C23.9766 32.7807 23.3694 32.5285 22.736 32.5271V32.5271Z" fill="#3A3531"/>
<path d="M60.8739 37.7461C62.4297 37.7461 63.6909 36.4848 63.6909 34.9291C63.6909 33.3733 62.4297 32.1121 60.8739 32.1121C59.3181 32.1121 58.0569 33.3733 58.0569 34.9291C58.0569 36.4848 59.3181 37.7461 60.8739 37.7461Z" fill="#2AB5E3"/>
<path d="M60.8749 38.1621C60.2331 38.1621 59.6057 37.9718 59.0721 37.6152C58.5384 37.2587 58.1225 36.7519 57.8769 36.1589C57.6313 35.566 57.567 34.9135 57.6922 34.2841C57.8175 33.6546 58.1265 33.0764 58.5803 32.6226C59.0341 32.1687 59.6123 31.8597 60.2418 31.7345C60.8713 31.6093 61.5237 31.6735 62.1167 31.9191C62.7096 32.1647 63.2164 32.5807 63.573 33.1143C63.9295 33.6479 64.1199 34.2753 64.1199 34.9171C64.1194 35.7776 63.7773 36.6027 63.1689 37.2111C62.5604 37.8195 61.7353 38.1616 60.8749 38.1621ZM60.8749 32.5271C60.4022 32.5271 59.9401 32.6673 59.5471 32.9299C59.1541 33.1925 58.8477 33.5658 58.6668 34.0025C58.4859 34.4392 58.4386 34.9198 58.5308 35.3834C58.623 35.847 58.8507 36.2729 59.1849 36.6071C59.5192 36.9414 59.945 37.169 60.4086 37.2612C60.8722 37.3534 61.3528 37.3061 61.7895 37.1252C62.2262 36.9443 62.5995 36.638 62.8621 36.2449C63.1247 35.8519 63.2649 35.3898 63.2649 34.9171C63.2636 34.2837 63.0113 33.6765 62.5634 33.2286C62.1155 32.7807 61.5083 32.5285 60.8749 32.5271V32.5271Z" fill="#3A3531"/>
<path d="M43.939 51.2668H39.9089C39.598 51.2678 39.2899 51.2073 39.0023 51.0889C38.7148 50.9705 38.4534 50.7965 38.2332 50.5769C38.013 50.3573 37.8384 50.0963 37.7192 49.8091C37.6001 49.5218 37.5388 49.2138 37.5389 48.9028V44.8728C37.5384 44.5618 37.5993 44.2538 37.7181 43.9664C37.8368 43.679 38.0112 43.4178 38.2311 43.1979C38.451 42.978 38.7121 42.8037 38.9995 42.6849C39.2869 42.5662 39.595 42.5053 39.9059 42.5059H43.939C44.25 42.5053 44.558 42.5662 44.8454 42.6849C45.1328 42.8037 45.394 42.978 45.6139 43.1979C45.8338 43.4178 46.0081 43.679 46.1268 43.9664C46.2456 44.2538 46.3065 44.5618 46.306 44.8728V48.9028C46.3081 49.2141 46.2483 49.5228 46.1301 49.8107C46.0118 50.0987 45.8375 50.3603 45.6173 50.5803C45.397 50.8002 45.1352 50.9742 44.847 51.0921C44.5589 51.21 44.2503 51.2694 43.939 51.2668V51.2668Z" fill="white"/>
<path d="M43.936 51.8259H39.906C39.1285 51.8249 38.3831 51.5155 37.8333 50.9657C37.2834 50.4159 36.9741 49.6705 36.973 48.8929V44.8629C36.9741 44.0854 37.2834 43.34 37.8333 42.7902C38.3831 42.2403 39.1285 41.931 39.906 41.9299H43.936C44.7136 41.931 45.459 42.2403 46.0088 42.7902C46.5586 43.34 46.868 44.0854 46.869 44.8629V48.8929C46.8743 49.2796 46.802 49.6633 46.6564 50.0215C46.5109 50.3797 46.2951 50.7052 46.0217 50.9786C45.7483 51.252 45.4228 51.4678 45.0646 51.6134C44.7064 51.7589 44.3227 51.8312 43.936 51.8259V51.8259ZM39.918 43.0739C39.4406 43.0739 38.9828 43.2636 38.6452 43.6011C38.3076 43.9387 38.118 44.3965 38.118 44.8739V48.9039C38.118 49.3813 38.3076 49.8392 38.6452 50.1767C38.9828 50.5143 39.4406 50.7039 39.918 50.7039H43.936C44.1731 50.7064 44.4082 50.6614 44.6277 50.5718C44.8472 50.4822 45.0465 50.3497 45.2142 50.1821C45.3818 50.0145 45.5143 49.8151 45.6039 49.5956C45.6935 49.3761 45.7384 49.141 45.736 48.9039V44.8739C45.736 44.3965 45.5464 43.9387 45.2088 43.6011C44.8712 43.2636 44.4134 43.0739 43.936 43.0739H39.918Z" fill="#3A3531"/>
<path d="M41.799 47.608C43.2018 47.608 44.339 47.1012 44.339 46.476C44.339 45.8508 43.2018 45.344 41.799 45.344C40.3962 45.344 39.259 45.8508 39.259 46.476C39.259 47.1012 40.3962 47.608 41.799 47.608Z" fill="#3A3531"/>
<path d="M78.702 31.9739C78.702 31.0398 78.331 30.144 77.6705 29.4835C77.01 28.823 76.1141 28.4519 75.18 28.4519C74.2459 28.4519 73.3501 28.823 72.6896 29.4835C72.0291 30.144 71.658 31.0398 71.658 31.9739C71.6547 32.6046 71.824 33.2241 72.1476 33.7655C72.4713 34.3068 72.9369 34.7493 73.494 35.0449C73.381 35.1019 73.2833 35.1851 73.209 35.2875C73.1347 35.39 73.086 35.5088 73.067 35.6339C73.067 36.1649 74.025 36.6149 75.18 36.6149C76.335 36.6149 77.293 36.1649 77.293 35.6339C77.2841 35.5056 77.2394 35.3824 77.1639 35.2782C77.0884 35.1741 76.9852 35.0933 76.866 35.0449C77.4196 34.745 77.8822 34.3016 78.2052 33.7612C78.5283 33.2209 78.6999 32.6035 78.702 31.9739V31.9739Z" fill="white"/>
<path d="M75.1821 36.892C74.0041 36.892 72.7921 36.419 72.7921 35.622C72.7983 35.4152 72.8806 35.218 73.0231 35.068C72.3589 34.6087 71.8589 33.949 71.5963 33.1854C71.3336 32.4217 71.322 31.5941 71.5631 30.8234C71.8043 30.0527 72.2856 29.3793 72.9366 28.9016C73.5877 28.4238 74.3745 28.1668 75.1821 28.168C75.989 28.1676 76.775 28.4247 77.4257 28.9019C78.0764 29.3791 78.5578 30.0515 78.8 30.8212C79.0422 31.5909 79.0325 32.4178 78.7722 33.1816C78.512 33.9454 78.0148 34.6063 77.3531 35.068C77.4916 35.2195 77.5696 35.4167 77.5721 35.622C77.5711 36.419 76.3591 36.892 75.1821 36.892ZM75.1821 28.728C74.3216 28.7285 73.4965 29.0706 72.8881 29.679C72.2796 30.2875 71.9376 31.1125 71.9371 31.973C71.9366 32.5512 72.0932 33.1187 72.3901 33.6148C72.6871 34.111 73.1132 34.5172 73.623 34.79L74.0391 35.009L73.6461 35.275C73.4461 35.402 73.3461 35.529 73.3461 35.633C73.3461 35.91 74.0731 36.333 75.1821 36.333C76.2911 36.333 77.0181 35.906 77.0181 35.633C77.0181 35.518 76.9261 35.402 76.7291 35.287L76.3021 35.033L76.7411 34.802C77.2509 34.5292 77.6771 34.123 77.974 33.6269C78.271 33.1307 78.4275 32.5632 78.4271 31.985C78.4247 31.1241 78.0824 30.2989 77.4747 29.6891C76.8669 29.0793 76.043 28.7342 75.1821 28.729V28.728Z" fill="#3A3531"/>
<path d="M74.5041 33.994L73.0141 29.803C72.8754 29.4161 72.6576 29.0624 72.3747 28.7643C72.0917 28.4663 71.7498 28.2304 71.3707 28.0718C70.9915 27.9132 70.5835 27.8353 70.1726 27.8431C69.7617 27.8508 69.3569 27.9441 68.9841 28.117L62.0841 31.269L61.2411 32.678V32.701C61.1601 32.701 61.0411 32.678 60.9641 32.678C60.6606 32.6652 60.3577 32.7139 60.0735 32.8212C59.7894 32.9285 59.5299 33.0922 59.3107 33.3024C59.0914 33.5126 58.917 33.765 58.7978 34.0443C58.6786 34.3237 58.6172 34.6243 58.6172 34.928C58.6172 35.2317 58.6786 35.5323 58.7978 35.8117C58.917 36.0911 59.0914 36.3434 59.3107 36.5536C59.5299 36.7638 59.7894 36.9275 60.0735 37.0348C60.3577 37.1421 60.6606 37.1908 60.9641 37.178C61.2689 37.1794 61.5709 37.118 61.851 36.9976C62.1311 36.8771 62.3834 36.7003 62.5921 36.478L62.6501 36.617L64.3361 37.749L72.6151 37.16C72.9567 37.0938 73.2806 36.9563 73.5654 36.7563C73.8503 36.5564 74.0897 36.2985 74.268 35.9997C74.4463 35.7008 74.5595 35.3677 74.6002 35.022C74.6409 34.6764 74.6081 34.3261 74.5041 33.994V33.994Z" fill="white"/>
<path d="M64.2581 38.032L62.5491 36.9C62.0991 37.2672 61.5359 37.4671 60.9551 37.466C60.2813 37.466 59.6351 37.1983 59.1587 36.7219C58.6823 36.2454 58.4146 35.5992 58.4146 34.9255C58.4146 34.2517 58.6823 33.6055 59.1587 33.1291C59.6351 32.6526 60.2813 32.385 60.9551 32.385C60.9938 32.3833 61.0325 32.3873 61.0701 32.397L61.8781 31.046L68.8641 27.859C69.2733 27.6717 69.7169 27.5714 70.1669 27.5646C70.6168 27.5577 71.0633 27.6445 71.478 27.8193C71.8927 27.994 72.2666 28.253 72.576 28.5799C72.8853 28.9067 73.1234 29.2943 73.2751 29.718L74.7751 33.9179C74.8923 34.2824 74.9303 34.6676 74.8865 35.0479C74.8427 35.4282 74.7181 35.7948 74.5211 36.123C74.3224 36.4578 74.0552 36.7467 73.7368 36.9708C73.4185 37.1948 73.0563 37.3489 72.6741 37.423H72.6391L64.2581 38.032ZM62.8721 36.4269L64.4081 37.455L72.5711 36.866C72.8726 36.8036 73.1577 36.679 73.4083 36.5001C73.6588 36.3212 73.8692 36.0919 74.0261 35.827C74.1832 35.5679 74.2825 35.2779 74.317 34.9768C74.3515 34.6758 74.3205 34.3709 74.2261 34.083L72.7361 29.8919C72.6074 29.5412 72.4078 29.2207 72.1497 28.9506C71.8916 28.6805 71.5806 28.4665 71.2361 28.322C70.895 28.1779 70.5273 28.1075 70.1572 28.1154C69.787 28.1234 69.4227 28.2094 69.0881 28.368L62.2641 31.486L61.5021 32.756V32.9869H61.2251C61.1671 32.9869 61.1101 32.975 61.0401 32.975C61.0051 32.975 60.9711 32.963 60.9401 32.963C60.6133 32.9633 60.2917 33.0446 60.0042 33.1997C59.7166 33.3549 59.472 33.579 59.2923 33.8519C59.1126 34.1248 59.0034 34.438 58.9745 34.7635C58.9457 35.089 58.998 35.4165 59.1269 35.7168C59.2557 36.0171 59.4571 36.2807 59.7129 36.484C59.9687 36.6873 60.2709 36.824 60.5925 36.8818C60.9141 36.9396 61.245 36.9167 61.5556 36.8152C61.8662 36.7136 62.1467 36.5366 62.3721 36.3L62.6721 35.977L62.8721 36.4269Z" fill="#3A3531"/>
<path d="M4.896 31.9739C4.896 31.0398 5.26708 30.144 5.92758 29.4835C6.58808 28.823 7.48391 28.4519 8.418 28.4519C9.35209 28.4519 10.2479 28.823 10.9084 29.4835C11.569 30.144 11.94 31.0398 11.94 31.9739C11.9432 32.6045 11.7738 33.2241 11.4502 33.7654C11.1266 34.3067 10.6611 34.7492 10.104 35.0449C10.217 35.1019 10.3148 35.1851 10.389 35.2875C10.4633 35.39 10.512 35.5088 10.531 35.6339C10.531 36.1649 9.573 36.6149 8.418 36.6149C7.263 36.6149 6.30499 36.1649 6.30499 35.6339C6.3139 35.5056 6.35865 35.3824 6.43414 35.2782C6.50963 35.1741 6.61282 35.0933 6.73199 35.0449C6.17842 34.745 5.71582 34.3016 5.39276 33.7612C5.0697 33.2209 4.8981 32.6035 4.896 31.9739Z" fill="white"/>
<path d="M8.41904 36.8918C7.24104 36.8918 6.02905 36.4188 6.02905 35.6218C6.03146 35.4165 6.10942 35.2193 6.24805 35.0678C5.7437 34.7226 5.33157 34.259 5.04761 33.7178C4.76365 33.1766 4.61651 32.574 4.61905 31.9628C4.61905 30.955 5.01942 29.9885 5.73206 29.2758C6.4447 28.5632 7.41122 28.1628 8.41904 28.1628C9.42686 28.1628 10.3934 28.5632 11.1061 29.2758C11.8187 29.9885 12.2191 30.955 12.2191 31.9628C12.2221 32.5755 12.0741 33.1794 11.788 33.7212C11.5019 34.263 11.0867 34.7258 10.579 35.0688C10.7216 35.2188 10.8038 35.416 10.8101 35.6228C10.8191 36.4188 9.59604 36.8918 8.41904 36.8918ZM8.41904 28.7278C7.55857 28.7284 6.7335 29.0704 6.12506 29.6789C5.51662 30.2873 5.17457 31.1124 5.17404 31.9728C5.17357 32.5511 5.33019 33.1185 5.62714 33.6147C5.92409 34.1108 6.35022 34.517 6.86005 34.7898L7.29904 35.0208L6.87204 35.2748C6.68704 35.3898 6.58304 35.5058 6.58304 35.6208C6.58304 35.8978 7.31004 36.3208 8.41904 36.3208C9.52804 36.3208 10.255 35.8938 10.255 35.6208C10.255 35.5208 10.155 35.3898 9.95505 35.2628L9.56204 34.9968L9.97806 34.7778C10.4879 34.505 10.914 34.0988 11.211 33.6027C11.5079 33.1065 11.6645 32.539 11.6641 31.9608C11.6606 31.1024 11.3172 30.2804 10.709 29.6747C10.1008 29.0689 9.27742 28.7288 8.41904 28.7288V28.7278Z" fill="#3A3531"/>
<path d="M9.09904 33.9928L10.589 29.8018C10.7277 29.4149 10.9455 29.0612 11.2284 28.7631C11.5114 28.465 11.8533 28.2292 12.2324 28.0706C12.6116 27.912 13.0196 27.8341 13.4305 27.8418C13.8414 27.8496 14.2462 27.9429 14.619 28.1158L21.519 31.2678L22.362 32.6768V32.6998C22.443 32.6998 22.562 32.6768 22.639 32.6768C22.9425 32.664 23.2454 32.7127 23.5296 32.82C23.8137 32.9273 24.0732 33.091 24.2924 33.3012C24.5117 33.5114 24.6861 33.7637 24.8053 34.0431C24.9245 34.3225 24.9859 34.623 24.9859 34.9268C24.9859 35.2305 24.9245 35.5311 24.8053 35.8105C24.6861 36.0898 24.5117 36.3422 24.2924 36.5524C24.0732 36.7626 23.8137 36.9262 23.5296 37.0336C23.2454 37.1409 22.9425 37.1896 22.639 37.1768C22.3342 37.1782 22.0322 37.1168 21.7521 36.9963C21.472 36.8759 21.2197 36.6991 21.011 36.4768L20.953 36.6158L19.267 37.7478L10.988 37.1588C10.6464 37.0926 10.3225 36.9551 10.0377 36.7551C9.75283 36.5552 9.51344 36.2973 9.33512 35.9985C9.15681 35.6996 9.04359 35.3665 9.00291 35.0208C8.96223 34.6752 8.99499 34.3249 9.09904 33.9928V33.9928Z" fill="white"/>
<path d="M19.3421 38.0339L10.9361 37.4339C10.557 37.3607 10.1977 37.2084 9.88154 36.9869C9.56538 36.7654 9.2995 36.4797 9.1013 36.1484C8.9031 35.8171 8.77704 35.4478 8.73134 35.0645C8.68563 34.6811 8.72131 34.2925 8.83607 33.9239V33.9119L10.3261 29.7209C10.4778 29.2972 10.7158 28.9096 11.0252 28.5828C11.3345 28.256 11.7084 27.997 12.1231 27.8222C12.5378 27.6474 12.9843 27.5607 13.4343 27.5675C13.8843 27.5744 14.3279 27.6746 14.7371 27.8619L21.7111 31.0489L22.5191 32.3999C22.5651 32.3999 22.6001 32.3879 22.6341 32.3879C23.0406 32.3872 23.4414 32.4841 23.8027 32.6705C24.1641 32.8569 24.4754 33.1273 24.7105 33.459C24.9456 33.7907 25.0976 34.174 25.1539 34.5767C25.2101 34.9793 25.1688 35.3896 25.0336 35.773C24.8983 36.1564 24.6729 36.5017 24.3765 36.7799C24.08 37.0582 23.7211 37.2612 23.3299 37.3719C22.9387 37.4826 22.5267 37.4978 22.1284 37.4162C21.7301 37.3346 21.3572 37.1586 21.0411 36.9029L19.3421 38.0339ZM11.0281 36.8679L19.1921 37.4569L20.7281 36.4289L20.9131 35.9559L21.2131 36.2789C21.4384 36.5155 21.7189 36.6925 22.0295 36.7941C22.3401 36.8956 22.671 36.9185 22.9926 36.8608C23.3142 36.803 23.6165 36.6663 23.8723 36.463C24.1281 36.2596 24.3294 35.996 24.4583 35.6957C24.5871 35.3954 24.6395 35.0679 24.6106 34.7424C24.5817 34.4169 24.4726 34.1037 24.2929 33.8308C24.1132 33.5579 23.8686 33.3338 23.581 33.1787C23.2934 33.0236 22.9719 32.9422 22.6451 32.9419C22.6101 32.9419 22.5761 32.9539 22.5451 32.9539C22.4839 32.9637 22.422 32.9677 22.3601 32.9659H22.0831V32.7349L21.3211 31.4649L14.4971 28.3469C14.1625 28.1883 13.7982 28.1022 13.428 28.0942C13.0578 28.0863 12.6901 28.1567 12.3491 28.3009C12.0045 28.4453 11.6934 28.6593 11.4353 28.9295C11.1772 29.1996 10.9777 29.5201 10.8491 29.8709L9.37108 34.0859C9.27966 34.3743 9.25024 34.6787 9.28471 34.9793C9.31918 35.2798 9.41676 35.5697 9.57109 35.8299C9.7288 36.0944 9.93975 36.3232 10.1906 36.5019C10.4414 36.6806 10.7266 36.8052 11.0281 36.8679Z" fill="#3A3531"/>
<path d="M60.9551 36.107C61.6057 36.107 62.1331 35.5796 62.1331 34.929C62.1331 34.2784 61.6057 33.751 60.9551 33.751C60.3045 33.751 59.7771 34.2784 59.7771 34.929C59.7771 35.5796 60.3045 36.107 60.9551 36.107Z" fill="#2AB5E3"/>
<path d="M60.9551 33.7979C61.179 33.7979 61.3978 33.8644 61.584 33.9887C61.7701 34.1131 61.9152 34.2899 62.0009 34.4968C62.0866 34.7036 62.109 34.9312 62.0654 35.1508C62.0217 35.3704 61.9139 35.5721 61.7555 35.7304C61.5972 35.8887 61.3955 35.9965 61.176 36.0402C60.9564 36.0839 60.7287 36.0615 60.5219 35.9758C60.3151 35.8901 60.1382 35.745 60.0138 35.5589C59.8895 35.3727 59.8231 35.1539 59.8231 34.93C59.8234 34.6298 59.9427 34.342 60.155 34.1298C60.3672 33.9176 60.6549 33.7982 60.9551 33.7979V33.7979ZM60.9551 33.6589C60.7039 33.6589 60.4584 33.7334 60.2495 33.873C60.0407 34.0125 59.8779 34.2109 59.7817 34.4429C59.6856 34.675 59.6605 34.9304 59.7095 35.1767C59.7585 35.4231 59.8794 35.6494 60.0571 35.827C60.2347 36.0046 60.461 36.1255 60.7073 36.1745C60.9537 36.2235 61.209 36.1984 61.4411 36.1023C61.6732 36.0061 61.8715 35.8434 62.011 35.6345C62.1506 35.4257 62.2251 35.1801 62.2251 34.929C62.2256 34.762 62.1931 34.5967 62.1295 34.4423C62.0659 34.288 61.9723 34.1478 61.8543 34.0298C61.7363 33.9117 61.596 33.8182 61.4417 33.7546C61.2874 33.6909 61.122 33.6584 60.9551 33.6589V33.6589Z" fill="#3A3531"/>
<path d="M22.6431 36.107C23.2937 36.107 23.8211 35.5796 23.8211 34.929C23.8211 34.2784 23.2937 33.751 22.6431 33.751C21.9925 33.751 21.4651 34.2784 21.4651 34.929C21.4651 35.5796 21.9925 36.107 22.6431 36.107Z" fill="#2AB5E3"/>
<path d="M22.643 33.7979C22.8669 33.7979 23.0858 33.8644 23.272 33.9887C23.4581 34.1131 23.6032 34.2899 23.6889 34.4968C23.7746 34.7036 23.797 34.9312 23.7533 35.1508C23.7096 35.3704 23.6018 35.5721 23.4435 35.7304C23.2852 35.8887 23.0835 35.9965 22.8639 36.0402C22.6443 36.0839 22.4167 36.0615 22.2099 35.9758C22.003 35.8901 21.8262 35.745 21.7018 35.5589C21.5774 35.3727 21.5111 35.1539 21.5111 34.93C21.5155 34.6311 21.6361 34.3457 21.8475 34.1344C22.0588 33.923 22.3442 33.8023 22.643 33.7979V33.7979ZM22.643 33.6589C22.3919 33.6589 22.1463 33.7334 21.9375 33.873C21.7286 34.0125 21.5659 34.2109 21.4697 34.4429C21.3736 34.675 21.3484 34.9304 21.3974 35.1767C21.4464 35.4231 21.5674 35.6494 21.745 35.827C21.9227 36.0046 22.1489 36.1255 22.3953 36.1745C22.6416 36.2235 22.897 36.1984 23.1291 36.1023C23.3611 36.0061 23.5595 35.8434 23.699 35.6345C23.8386 35.4257 23.9131 35.1801 23.9131 34.929C23.9136 34.762 23.8811 34.5967 23.8175 34.4423C23.7538 34.288 23.6603 34.1478 23.5422 34.0298C23.4242 33.9117 23.284 33.8182 23.1297 33.7546C22.9754 33.6909 22.81 33.6584 22.643 33.6589V33.6589Z" fill="#3A3531"/>
<path d="M65.1119 37.7691C65.0377 37.5886 65.0024 37.3944 65.0085 37.1994C65.0145 37.0043 65.0617 36.8127 65.147 36.6371C65.2587 36.4786 65.4077 36.35 65.5809 36.2628C65.7541 36.1756 65.9461 36.1324 66.1399 36.1371L69.9739 35.7791C70.177 35.7207 70.3911 35.7123 70.5981 35.7544C70.8051 35.7965 70.9989 35.888 71.163 36.0211C71.3063 36.2081 71.3951 36.4312 71.4197 36.6655C71.4442 36.8999 71.4034 37.1365 71.3019 37.3491L70.759 37.1871C70.874 36.8061 70.8739 36.5291 70.7469 36.4131C70.5849 36.2511 70.204 36.2981 70.077 36.3321L70.0309 36.3441L66.1739 36.7141C65.8849 36.7371 65.7009 36.8061 65.6199 36.9451C65.538 37.145 65.538 37.3692 65.6199 37.5691L65.1119 37.7691Z" fill="#3A3531"/>
<path d="M68.1969 36.28L67.6429 36.211C67.6549 36.165 68.2429 31.119 65.8989 29.811L66.1759 29.311C68.8299 30.807 68.2179 36.06 68.1969 36.28Z" fill="#3A3531"/>
<path d="M18.902 37.769L18.382 37.55C18.4254 37.4517 18.4478 37.3454 18.4478 37.238C18.4478 37.1305 18.4254 37.0243 18.382 36.926C18.301 36.787 18.116 36.718 17.828 36.695L13.914 36.325C13.787 36.29 13.406 36.244 13.244 36.406C13.129 36.533 13.129 36.806 13.232 37.18L12.689 37.342C12.5665 37.1482 12.509 36.9203 12.5249 36.6916C12.5408 36.4628 12.6292 36.2451 12.7773 36.0701C12.9254 35.895 13.1254 35.7717 13.3484 35.7181C13.5713 35.6645 13.8055 35.6834 14.017 35.772L17.85 36.142C18.0419 36.1388 18.2317 36.1827 18.4027 36.2699C18.5738 36.357 18.7208 36.4848 18.831 36.642C18.9327 36.8102 18.9922 37.0006 19.0046 37.1968C19.017 37.393 18.9817 37.5893 18.902 37.769V37.769Z" fill="#3A3531"/>
<path d="M15.83 36.2801C15.807 36.0611 15.1949 30.8071 17.8619 29.3291L18.1389 29.8291C15.7949 31.1291 16.3839 36.1681 16.3949 36.2291L15.83 36.2801Z" fill="#3A3531"/>
<path d="M24.502 58.3332C24.1363 57.9419 23.9338 57.4257 23.9361 56.8901C23.9628 56.6248 24.0456 56.3683 24.179 56.1374C24.3125 55.9066 24.4935 55.7067 24.71 55.5512L27.516 52.7452C27.6179 52.6529 27.7395 52.5852 27.8716 52.5472C28.0037 52.5093 28.1427 52.5021 28.278 52.5262C28.624 52.5952 28.9011 52.8841 29.1211 53.3691L28.601 53.6002C28.462 53.3002 28.301 53.1151 28.151 53.0801C28.0553 53.0724 27.9602 53.1013 27.885 53.1611L25.056 55.9891C24.8997 56.0958 24.7675 56.2342 24.6681 56.3953C24.5687 56.5564 24.5043 56.7365 24.479 56.9241C24.481 57.3008 24.6237 57.6632 24.879 57.9402L24.502 58.3332Z" fill="#3A3531"/>
<path d="M58.83 61.9352L58.5759 61.4272C58.8419 61.3002 59.153 61.0812 59.176 60.8152C59.199 60.4572 58.7259 60.0531 58.5519 59.9371L55.192 57.9742C55.1391 57.9321 55.0771 57.9028 55.011 57.8887C54.9449 57.8747 54.8764 57.8762 54.811 57.8931C54.411 57.9851 54.003 58.5402 53.887 58.7242L53.403 58.4352C53.6892 57.9339 54.1432 57.5496 54.6849 57.3502C54.8228 57.3204 54.9653 57.3183 55.104 57.344C55.2427 57.3698 55.3749 57.4229 55.493 57.5002L58.853 59.4631C58.953 59.5321 59.7879 60.1102 59.7419 60.8492C59.6994 61.0946 59.5926 61.3244 59.4324 61.5151C59.2722 61.7059 59.0644 61.8509 58.83 61.9352Z" fill="#3A3531"/>
<path d="M63.4719 63.046C61.597 61.7782 60.2439 59.8752 59.6619 57.688L59.65 57.642C59.477 54.674 62.1209 52.4 62.4099 52.157C62.7559 51.776 63.876 51.799 64.338 51.822L64.3029 52.388C63.8052 52.3282 63.3005 52.3795 62.825 52.538L62.7789 52.584C62.7559 52.607 60.0649 54.824 60.2039 57.595C60.7677 59.6265 62.0315 61.3932 63.7719 62.583L63.4719 63.046Z" fill="#3A3531"/>
<path d="M47.8041 36.4179L41.8041 36.6179L35.8041 36.4179C35.4343 36.3975 35.0646 36.4586 34.7211 36.597C34.3776 36.7355 34.0687 36.9477 33.8164 37.2188C33.5641 37.49 33.3745 37.8133 33.2611 38.1658C33.1477 38.5184 33.1132 38.8915 33.1601 39.2589L33.7841 43.6589C33.8981 44.2343 34.1903 44.7592 34.6192 45.1593C35.0482 45.5593 35.5922 45.8143 36.1741 45.8879H47.4441C48.0268 45.8163 48.5719 45.5621 49.0012 45.1617C49.4306 44.7613 49.7221 44.2352 49.8341 43.6589L50.4581 39.2589C50.4985 38.8919 50.4591 38.5206 50.3426 38.1702C50.2262 37.8199 50.0354 37.4988 49.7834 37.2291C49.5314 36.9593 49.224 36.7471 48.8824 36.6071C48.5408 36.4671 48.173 36.4026 47.8041 36.4179V36.4179Z" fill="white"/>
<path d="M47.4581 46.441H36.1301C35.4244 46.3637 34.7618 46.0635 34.2384 45.5838C33.7151 45.1042 33.3584 44.4702 33.2201 43.7739L33.2081 43.7279L32.5961 39.3519C32.5131 38.9459 32.5251 38.5262 32.6313 38.1257C32.7374 37.7251 32.9349 37.3545 33.2081 37.0429C33.5258 36.6606 33.9252 36.3543 34.3769 36.1466C34.8285 35.939 35.321 35.8352 35.8181 35.8429L41.7991 36.0429L47.7921 35.8429C48.2944 35.8417 48.7905 35.9531 49.2441 36.1689C49.6977 36.3847 50.0971 36.6994 50.4131 37.0899C50.679 37.3963 50.8705 37.7599 50.9727 38.1524C51.0749 38.545 51.0849 38.9559 51.0021 39.3529L50.3781 43.764C50.2415 44.461 49.8853 45.0961 49.3617 45.576C48.838 46.0559 48.1744 46.3555 47.4681 46.4309L47.4581 46.441ZM36.1881 45.3209H47.4111C47.8661 45.2559 48.2895 45.0508 48.6226 44.7342C48.9558 44.4176 49.1821 44.005 49.2701 43.5539L49.8941 39.1319C49.9395 38.8979 49.9308 38.6567 49.8688 38.4265C49.8068 38.1964 49.693 37.9834 49.5361 37.8039C49.3258 37.5472 49.0616 37.3397 48.7624 37.1961C48.4631 37.0525 48.136 36.9763 47.8041 36.9729L41.7881 37.173H41.7651L35.7651 36.9729C35.4399 36.9689 35.1178 37.0373 34.8222 37.173C34.5267 37.3088 34.2649 37.5086 34.0561 37.7579C33.8932 37.941 33.7751 38.1595 33.7111 38.396C33.6471 38.6325 33.6388 38.8807 33.6871 39.1209L33.6981 39.1669L34.3101 43.5429C34.404 43.9957 34.6343 44.4088 34.9701 44.7266C35.3058 45.0445 35.7309 45.2519 36.1881 45.3209V45.3209Z" fill="#3A3531"/>
<path d="M41.7991 37.7449C42.8893 37.7449 43.7731 37.4297 43.7731 37.0409C43.7731 36.6521 42.8893 36.3369 41.7991 36.3369C40.7089 36.3369 39.8251 36.6521 39.8251 37.0409C39.8251 37.4297 40.7089 37.7449 41.7991 37.7449Z" fill="#3A3531"/>
<path d="M33.624 42.1218L33.589 41.9139C39.0091 41.1062 44.5189 41.1062 49.939 41.9139L49.904 42.1218C44.5069 41.3205 39.021 41.3205 33.624 42.1218V42.1218Z" fill="#3A3531"/>
<path d="M41.8679 38.4849C41.351 38.4813 40.8346 38.4506 40.3209 38.3929L39.7209 38.3119C39.5888 38.311 39.4582 38.2839 39.3367 38.2322C39.2151 38.1806 39.105 38.1053 39.0126 38.0109C38.9203 37.9164 38.8476 37.8046 38.7987 37.6819C38.7498 37.5591 38.7258 37.428 38.7279 37.2959V36.8229C38.7284 36.5536 38.8356 36.2955 39.0261 36.105C39.2165 35.9146 39.4746 35.8074 39.7439 35.8069H43.8889C44.1582 35.8074 44.4163 35.9146 44.6068 36.105C44.7972 36.2955 44.9044 36.5536 44.9049 36.8229V37.2959C44.9032 37.5621 44.7977 37.817 44.611 38.0067C44.4243 38.1964 44.171 38.3059 43.9049 38.3119L43.2699 38.3929C42.805 38.4536 42.3368 38.4844 41.8679 38.4849ZM39.7429 36.0849C39.6473 36.0845 39.5526 36.103 39.4642 36.1394C39.3759 36.1758 39.2956 36.2293 39.228 36.2969C39.1604 36.3645 39.1068 36.4448 39.0704 36.5332C39.034 36.6216 39.0155 36.7163 39.0159 36.8119V37.2849C39.0155 37.3805 39.034 37.4752 39.0704 37.5636C39.1068 37.652 39.1604 37.7322 39.228 37.7998C39.2956 37.8674 39.3759 37.921 39.4642 37.9574C39.5526 37.9938 39.6473 38.0123 39.7429 38.0119L40.3549 38.0929C41.3053 38.2203 42.2685 38.2203 43.2189 38.0929L43.8889 38.0119C43.9845 38.0123 44.0792 37.9938 44.1676 37.9574C44.256 37.921 44.3363 37.8674 44.4039 37.7998C44.4715 37.7322 44.525 37.652 44.5614 37.5636C44.5978 37.4752 44.6163 37.3805 44.6159 37.2849V36.8059C44.6163 36.7103 44.5978 36.6156 44.5614 36.5272C44.525 36.4388 44.4715 36.3585 44.4039 36.2909C44.3363 36.2233 44.256 36.1698 44.1676 36.1334C44.0792 36.097 43.9845 36.0785 43.8889 36.0789L39.7429 36.0849Z" fill="#3A3531"/>
<path d="M28.001 27.3211L25.692 26.9281C25.4423 26.9014 25.2116 26.7825 25.0451 26.5945C24.8786 26.4066 24.7883 26.1632 24.792 25.9121V20.3911C24.794 20.1416 24.8862 19.9013 25.0517 19.7145C25.2171 19.5278 25.4446 19.4072 25.692 19.3751L28.278 19.1211L28.001 27.3211Z" fill="white"/>
<path d="M28.543 27.9891L25.61 27.4891C25.2275 27.4409 24.8756 27.2548 24.6205 26.9658C24.3653 26.6768 24.2244 26.3046 24.224 25.9191V20.4001C24.225 20.0124 24.368 19.6386 24.626 19.3493C24.884 19.06 25.239 18.8753 25.624 18.8301L28.857 18.5181L28.543 27.9891ZM27.689 19.7451L25.738 19.9451C25.6305 19.9629 25.5325 20.0175 25.4608 20.0996C25.3891 20.1817 25.3481 20.2861 25.345 20.3951V25.9141C25.3427 26.0257 25.3826 26.134 25.4568 26.2175C25.5309 26.3009 25.6339 26.3532 25.745 26.3641H25.78L27.454 26.6531L27.689 19.7451Z" fill="#3A3531"/>
<path d="M55.5971 27.319L57.9061 26.926C58.1557 26.8994 58.3865 26.7804 58.553 26.5925C58.7195 26.4045 58.8098 26.1611 58.8061 25.91V20.391C58.8043 20.1415 58.7121 19.9011 58.5466 19.7143C58.3812 19.5275 58.1536 19.4069 57.9061 19.375L55.3201 19.144L55.5971 27.319Z" fill="white"/>
<path d="M55.066 27.989L54.743 18.5439L57.9641 18.821C58.3503 18.8674 58.7067 19.0519 58.9677 19.3404C59.2286 19.6289 59.3765 20.002 59.3841 20.3909V25.91C59.3859 26.2961 59.2456 26.6694 58.9901 26.9589C58.7345 27.2484 58.3814 27.4338 57.998 27.4799L55.066 27.989ZM55.9091 19.7679L56.1511 26.6609L57.86 26.3719C57.9704 26.3594 58.0724 26.3065 58.1462 26.2235C58.22 26.1404 58.2605 26.0331 58.2601 25.922V20.403C58.2566 20.293 58.2147 20.1877 58.1416 20.1055C58.0685 20.0233 57.9688 19.9693 57.86 19.953L55.9091 19.7679Z" fill="#3A3531"/>
<path d="M41.8 4.22694C42.5782 4.22694 43.209 3.5961 43.209 2.81794C43.209 2.03977 42.5782 1.40894 41.8 1.40894C41.0218 1.40894 40.391 2.03977 40.391 2.81794C40.391 3.5961 41.0218 4.22694 41.8 4.22694Z" fill="#2AB5E3"/>
<path d="M41.8 1.97504C41.9667 1.97504 42.1297 2.02448 42.2683 2.11711C42.407 2.20974 42.515 2.3414 42.5788 2.49544C42.6426 2.64947 42.6593 2.81897 42.6268 2.9825C42.5943 3.14603 42.514 3.29623 42.3961 3.41413C42.2782 3.53202 42.128 3.61231 41.9645 3.64484C41.801 3.67737 41.6314 3.66067 41.4774 3.59687C41.3233 3.53306 41.1917 3.42501 41.0991 3.28638C41.0065 3.14775 40.957 2.98477 40.957 2.81804C40.9557 2.70696 40.9766 2.59674 41.0185 2.49386C41.0603 2.39097 41.1224 2.29751 41.201 2.21896C41.2795 2.14041 41.373 2.07836 41.4759 2.03647C41.5787 1.99458 41.6889 1.9737 41.8 1.97504V1.97504ZM41.8 0.843038C41.4096 0.843236 41.0281 0.959176 40.7036 1.1762C40.3791 1.39323 40.1263 1.70159 39.977 2.06231C39.8278 2.42303 39.7888 2.81991 39.8651 3.20276C39.9414 3.58561 40.1294 3.93725 40.4055 4.21322C40.6817 4.48919 41.0334 4.6771 41.4163 4.75318C41.7992 4.82927 42.196 4.79012 42.5567 4.64068C42.9173 4.49124 43.2255 4.23823 43.4424 3.91363C43.6593 3.58903 43.775 3.20741 43.775 2.81704C43.776 2.55743 43.7257 2.30018 43.6268 2.06014C43.5279 1.8201 43.3825 1.60202 43.1989 1.41849C43.0153 1.23497 42.7971 1.08962 42.557 0.990854C42.3169 0.892085 42.0596 0.841848 41.8 0.843038Z" fill="white"/>
<path d="M41.7989 5.63498C41.2418 5.63498 40.6971 5.46976 40.2339 5.16023C39.7706 4.85069 39.4096 4.41074 39.1964 3.896C38.9832 3.38126 38.9274 2.81485 39.0361 2.26841C39.1447 1.72196 39.4131 1.22002 39.807 0.826058C40.201 0.432094 40.7029 0.1638 41.2494 0.0551058C41.7958 -0.0535888 42.3622 0.00219685 42.8769 0.215409C43.3917 0.428621 43.8317 0.789685 44.1412 1.25294C44.4508 1.71619 44.6159 2.26083 44.6159 2.81798C44.6128 3.56412 44.315 4.2788 43.7874 4.80641C43.2598 5.33402 42.5451 5.63182 41.7989 5.63498V5.63498ZM41.7989 1.68598C41.575 1.68598 41.3562 1.75237 41.17 1.87676C40.9839 2.00114 40.8388 2.17794 40.7531 2.38478C40.6674 2.59163 40.645 2.81923 40.6887 3.03882C40.7324 3.25841 40.8402 3.46011 40.9985 3.61842C41.1568 3.77674 41.3585 3.88455 41.5781 3.92823C41.7977 3.97191 42.0253 3.94949 42.2322 3.86381C42.439 3.77813 42.6158 3.63304 42.7402 3.44688C42.8645 3.26073 42.931 3.04187 42.931 2.81798C42.9307 2.51783 42.8113 2.23006 42.5991 2.01783C42.3869 1.80559 42.0991 1.68624 41.7989 1.68598V1.68598Z" fill="#3A3531"/>
<path d="M42.92 4.50293H40.668V8.16293H42.92V4.50293Z" fill="#3A3531"/>
<path d="M55.8861 21.2688C55.9083 19.4047 55.5603 17.5548 54.8623 15.8262C54.1643 14.0976 53.1303 12.5247 51.82 11.1987C50.5097 9.87273 48.9492 8.81996 47.229 8.10144C45.5089 7.38292 43.6632 7.01294 41.799 7.01294C39.9348 7.01294 38.0892 7.38292 36.369 8.10144C34.6489 8.81996 33.0885 9.87273 31.7782 11.1987C30.4679 12.5247 29.4338 14.0976 28.7358 15.8262C28.0378 17.5548 27.6898 19.4047 27.7121 21.2688C27.7121 24.7098 27.377 29.3858 29.398 31.8338C31.984 34.9628 37.398 35.4938 41.788 35.4938C46.178 35.4938 51.5881 34.9628 54.1781 31.8338C56.2211 29.3738 55.8861 24.6978 55.8861 21.2688Z" fill="white"/>
<path d="M41.799 36.0489C35.321 36.0489 31.13 34.7789 28.971 32.1809C27.054 29.8719 27.1 25.8069 27.147 22.5509C27.147 22.1009 27.1591 21.6729 27.1591 21.2579C27.1364 19.32 27.4985 17.3969 28.2244 15.6C28.9504 13.8031 30.0257 12.1681 31.388 10.7897C32.7504 9.41135 34.3727 8.31704 36.161 7.57017C37.9493 6.8233 39.868 6.43872 41.806 6.43872C43.744 6.43872 45.6628 6.8233 47.4511 7.57017C49.2394 8.31704 50.8617 9.41135 52.2241 10.7897C53.5864 12.1681 54.6617 13.8031 55.3876 15.6C56.1136 17.3969 56.4757 19.32 56.453 21.2579C56.453 21.6739 56.453 22.1119 56.465 22.5509C56.5 25.8069 56.5461 29.8599 54.6411 32.1809C52.4681 34.7899 48.277 36.0489 41.799 36.0489ZM41.799 7.59788C38.2062 7.65001 34.7776 9.11063 32.2509 11.6654C29.7242 14.2201 28.3015 17.6647 28.289 21.2579C28.289 21.6739 28.2891 22.1119 28.2771 22.5579C28.2421 25.6289 28.1961 29.4579 29.8471 31.4489C31.7751 33.7699 35.69 34.9009 41.809 34.9009C47.928 34.9009 51.8431 33.7689 53.7711 31.4489C55.4221 29.4489 55.371 25.6289 55.341 22.5579C55.341 22.1079 55.33 21.6689 55.33 21.2579C55.3103 17.6634 53.8824 14.2198 51.3527 11.666C48.8231 9.11222 45.3932 7.65173 41.799 7.59788V7.59788Z" fill="#3A3531"/>
<path d="M36.498 18.474C36.4745 15.053 37.3674 11.6882 39.084 8.729C36.2426 9.38455 33.7072 10.9834 31.8911 13.265C30.0751 15.5465 29.0856 18.376 29.084 21.292C29.084 24.387 28.772 28.647 30.608 30.864C32.94 33.704 37.8481 34.155 41.8201 34.189C42.8918 34.1991 43.9632 34.1527 45.03 34.05C40.02 31.407 36.498 25.437 36.498 18.474Z" fill="#EAEAEA"/>
<path d="M34.4179 29.0059H48.8979C49.371 29.0069 49.8396 28.9145 50.2768 28.734C50.7141 28.5535 51.1114 28.2883 51.4459 27.9538C51.7804 27.6193 52.0455 27.222 52.226 26.7848C52.4066 26.3475 52.499 25.8789 52.498 25.4059V12.0549C51.1752 10.4485 49.509 9.15931 47.622 8.2822C45.735 7.40509 43.6753 6.96242 41.5946 6.98679C39.5138 7.01117 37.4651 7.50196 35.5992 8.42303C33.7332 9.3441 32.0977 10.672 30.813 12.3089V25.3799C30.8095 25.8553 30.9002 26.3266 31.0799 26.7667C31.2596 27.2068 31.5247 27.607 31.8599 27.9441C32.1951 28.2812 32.5936 28.5486 33.0327 28.7308C33.4717 28.9131 33.9426 29.0066 34.4179 29.0059V29.0059Z" fill="#1E1E1E"/>
<path d="M48.9 29.5719H34.42C33.312 29.5671 32.2511 29.1233 31.4699 28.3377C30.6886 27.5521 30.2506 26.4888 30.252 25.3809V12.1129L30.379 11.9629C31.7159 10.262 33.417 8.88237 35.3572 7.92538C37.2975 6.9684 39.4276 6.45841 41.5908 6.43289C43.7541 6.40738 45.8955 6.86699 47.8578 7.77794C49.8201 8.68889 51.5533 10.028 52.9299 11.6969L53.069 11.8589V25.4149C53.0653 26.5183 52.6245 27.5753 51.8431 28.3545C51.0617 29.1336 50.0034 29.5714 48.9 29.5719V29.5719ZM31.372 12.5059V25.3689C31.366 25.771 31.4402 26.1702 31.5903 26.5433C31.7404 26.9163 31.9633 27.2557 32.246 27.5417C32.5288 27.8276 32.8657 28.0543 33.2371 28.2085C33.6084 28.3627 34.0068 28.4414 34.4089 28.4399H48.9C49.7052 28.4391 50.4772 28.1189 51.0466 27.5495C51.6159 26.9801 51.9362 26.2081 51.937 25.4029V12.2629C50.6658 10.7659 49.0802 9.56768 47.2931 8.75345C45.506 7.93922 43.5613 7.52905 41.5976 7.55216C39.6339 7.57527 37.6994 8.03108 35.9319 8.88714C34.1645 9.74319 32.6075 10.9784 31.372 12.5049V12.5059Z" fill="#3A3531"/>
<g opacity="0.1">
<path opacity="0.1" d="M39.0969 8.72894C39.0969 8.72894 50.3899 17.0429 48.7039 27.3189C49.0058 27.3873 49.3196 27.3833 49.6196 27.3074C49.9197 27.2314 50.1976 27.0856 50.4306 26.8819C50.6636 26.6781 50.8451 26.4222 50.9604 26.1349C51.0757 25.8477 51.1214 25.5372 51.0939 25.2289V13.0939C51.0939 13.0939 47.5489 7.75094 39.0969 8.72894Z" fill="white"/>
</g>
<path d="M36.557 18.7059C37.1348 18.7311 37.6853 18.9591 38.1119 19.3496C38.5385 19.7402 38.814 20.2685 38.89 20.8419C38.92 20.6857 38.9393 20.5277 38.948 20.3689C38.9813 20.038 38.945 19.7038 38.8412 19.3879C38.7375 19.0719 38.5686 18.7813 38.3456 18.5346C38.1225 18.288 37.8502 18.0908 37.5463 17.9559C37.2424 17.8209 36.9136 17.7512 36.581 17.7512C36.2485 17.7512 35.9196 17.8209 35.6157 17.9559C35.3118 18.0908 35.0395 18.288 34.8164 18.5346C34.5934 18.7813 34.4245 19.0719 34.3208 19.3879C34.217 19.7038 34.1807 20.038 34.214 20.3689C34.2141 20.5283 34.2336 20.6871 34.272 20.8419C34.3322 20.2705 34.5964 19.74 35.0161 19.3477C35.4358 18.9554 35.9829 18.7275 36.557 18.7059V18.7059Z" fill="#2AB5E3"/>
<path d="M47.065 18.7298C47.6386 18.8225 48.1596 19.1185 48.5327 19.5638C48.9058 20.0091 49.1061 20.5739 49.097 21.1548C49.1488 21.0007 49.1873 20.8425 49.212 20.6818C49.2722 20.36 49.2682 20.0294 49.2001 19.7091C49.132 19.3889 49.0013 19.0852 48.8154 18.8157C48.6295 18.5462 48.3922 18.316 48.117 18.1386C47.8418 17.9612 47.5342 17.8399 47.212 17.7818C46.5514 17.7294 45.8969 17.9403 45.3911 18.3686C44.8853 18.7968 44.5694 19.4076 44.5121 20.0678C44.4937 20.2248 44.486 20.3828 44.4891 20.5408C44.628 19.9791 44.9652 19.4865 45.4385 19.1538C45.9119 18.821 46.4895 18.6704 47.065 18.7298V18.7298Z" fill="#2AB5E3"/>
<g opacity="0.5">
<path opacity="0.5" d="M47.18 13.8329L46.48 13.2089C46.2668 13.0129 46.139 12.7411 46.1238 12.4519C46.1087 12.1627 46.2074 11.8791 46.399 11.6619L46.676 11.3499C46.872 11.1367 47.1438 11.0088 47.433 10.9937C47.7222 10.9786 48.0058 11.0773 48.223 11.2689L48.923 11.8929C49.1361 12.0889 49.264 12.3607 49.2792 12.6499C49.2943 12.9391 49.1956 13.2227 49.004 13.4399L48.727 13.7519C48.5319 13.9667 48.2599 14.0957 47.9701 14.1109C47.6804 14.1261 47.3964 14.0261 47.18 13.8329V13.8329Z" fill="white"/>
</g>
<path d="M44.423 44.3629L43.407 44.4779C42.2552 44.5933 41.0947 44.5933 39.9429 44.4779L38.9269 44.3629C38.7619 44.3616 38.6041 44.2953 38.4875 44.1786C38.371 44.0618 38.305 43.9038 38.304 43.7388L38.027 39.9049C38.028 39.7397 38.0941 39.5816 38.2109 39.4648C38.3277 39.348 38.4858 39.2819 38.6509 39.2809L39.529 39.1999C40.973 39.0613 42.427 39.0613 43.871 39.1999L44.749 39.2809C44.914 39.2822 45.0718 39.3484 45.1884 39.4651C45.305 39.5819 45.3709 39.7399 45.3719 39.9049L45.095 43.7388C45.0741 43.9052 44.9952 44.0589 44.8724 44.173C44.7495 44.2871 44.5904 44.3543 44.423 44.3629V44.3629Z" fill="white"/>
<path d="M41.672 44.6979C41.083 44.6979 40.506 44.675 39.928 44.617L38.912 44.502C38.7142 44.4952 38.5266 44.4121 38.3888 44.27C38.251 44.1279 38.1736 43.9379 38.173 43.7399L37.896 39.9179C37.8952 39.7145 37.9748 39.519 38.1176 39.374C38.2603 39.229 38.4545 39.1463 38.658 39.144L39.512 39.0629C40.9637 38.9243 42.4253 38.9243 43.877 39.0629L44.755 39.144C44.954 39.1501 45.143 39.2327 45.2827 39.3746C45.4224 39.5166 45.502 39.7069 45.505 39.906L45.228 43.751C45.213 43.951 45.1245 44.1384 44.9796 44.2771C44.8346 44.4157 44.6435 44.4959 44.443 44.502L43.443 44.617C42.838 44.675 42.261 44.6979 41.672 44.6979ZM41.684 39.248C40.968 39.248 40.241 39.2829 39.525 39.3479L38.647 39.429C38.5822 39.4276 38.5179 39.4392 38.4576 39.4629C38.3973 39.4866 38.3423 39.522 38.2958 39.5671C38.2493 39.6122 38.2122 39.6661 38.1867 39.7256C38.1611 39.7852 38.1476 39.8492 38.147 39.9139L38.424 43.7359C38.4242 43.8624 38.4738 43.9839 38.5621 44.0744C38.6504 44.165 38.7705 44.2176 38.897 44.221L39.925 44.3359C41.0691 44.4514 42.2219 44.4514 43.366 44.3359L44.394 44.221C44.523 44.2152 44.6456 44.1629 44.739 44.0737C44.8324 43.9845 44.8903 43.8645 44.902 43.7359L45.179 39.903C45.1764 39.7783 45.1258 39.6595 45.0376 39.5713C44.9494 39.4832 44.8306 39.4325 44.706 39.4299L43.817 39.3489C43.127 39.2819 42.411 39.248 41.683 39.248H41.684Z" fill="#3A3531"/>
<path d="M38.4739 47.7112C38.3748 48.0537 38.3638 48.4157 38.442 48.7636C38.5202 49.1116 38.685 49.4341 38.9211 49.7013C39.1572 49.9685 39.4569 50.1718 39.7925 50.2922C40.1282 50.4126 40.4888 50.4463 40.8409 50.3902C40.2514 50.1813 39.7247 49.8258 39.3106 49.3571C38.8965 48.8884 38.6085 48.322 38.4739 47.7112V47.7112Z" fill="#EAEAEA"/>
<path d="M34.756 43.0933C34.805 43.6088 35.0411 44.0885 35.4197 44.4417C35.7984 44.7949 36.2933 44.9972 36.811 45.0103H39.12L36.926 44.3633L36.695 42.5633C36.707 42.5273 35.322 42.2503 34.756 43.0933Z" fill="#EAEAEA"/>
<path d="M38.844 39.9062L39.121 43.7402C40.837 44.1124 42.6129 44.1124 44.329 43.7402C44.329 43.7402 40.3799 43.3702 40.3799 42.8052C40.3909 42.8162 40.391 39.8022 38.844 39.9062Z" fill="#EAEAEA"/>
<path d="M55.0439 38.5891L58.1389 37.4571L57.4109 36.0491C57.4339 36.0491 55.3209 36.8921 55.0439 38.5891Z" fill="#EAEAEA"/>
<path d="M25.553 37.3202L26.253 35.9111C27.1813 36.4709 27.8963 37.3242 28.285 38.3362L25.553 37.3202Z" fill="#EAEAEA"/>
<path d="M64.3389 37.0431L63.3569 36.2581L62.8259 34.9301C62.8259 34.9301 64.881 32.9301 66.994 33.5211C66.994 33.5211 67.56 34.9301 67.225 35.4951L65.0889 35.9221L64.3389 37.0431Z" fill="#EAEAEA"/>
<path d="M68.703 35.2062C68.703 35.2062 69.13 33.8202 68.703 33.3702C68.703 33.3702 72.19 32.2962 73.203 32.7462C73.203 32.7462 74.358 34.8822 73.572 35.8752C73.3779 36.0881 73.1429 36.2598 72.8811 36.38C72.6193 36.5003 72.336 36.5667 72.048 36.5752C72.048 36.5752 72.129 34.9122 70.778 35.1662H68.692V35.2012L68.703 35.2062Z" fill="#EAEAEA"/>
<path d="M73.519 29.5721L74.905 33.4051C74.905 33.4051 75.605 35.4051 74.905 36.0261C74.905 36.0261 75.783 36.0491 76.117 35.4951C76.117 35.4951 76.348 34.9291 75.69 34.9291C75.69 34.9291 77.8031 33.7971 76.4171 32.5391C76.4191 32.5281 74.789 29.0061 73.519 29.5721Z" fill="#EAEAEA"/>
<path d="M19.433 36.8461C19.433 36.8461 19.04 35.7721 18.301 35.9111L16.915 35.6801C16.7837 35.3811 16.7228 35.0559 16.7368 34.7297C16.7509 34.4034 16.8395 34.0847 16.996 33.7981C16.996 33.7981 20.968 34.9301 20.241 35.9111C20.276 35.9111 20.449 36.4981 19.433 36.8461Z" fill="#EAEAEA"/>
<path d="M15.3 35.3221C15.2906 34.6139 15.3486 33.9063 15.473 33.2091C13.8207 32.8645 12.1462 32.637 10.4619 32.5281L9.69995 34.3641C9.65344 34.8318 9.75708 35.3023 9.99585 35.7072C10.2346 36.1121 10.5961 36.4304 11.028 36.6161H12.1599C12.1599 36.6161 11.9289 35.2071 13.7879 35.4841C13.7759 35.4841 15.266 35.9921 15.3 35.3221Z" fill="#EAEAEA"/>
<path d="M8.41795 36.0251C8.41795 36.0251 7.14796 35.7711 7.14796 35.4941C7.38909 35.3366 7.60689 35.1461 7.79497 34.9281C7.79497 34.9281 6.16695 34.3041 6.52495 33.2081C6.52495 33.2081 6.83695 30.1131 9.26195 30.9791C8.88873 31.9933 8.61412 33.0412 8.44194 34.1081C8.19575 34.7218 8.1872 35.4053 8.41795 36.0251V36.0251Z" fill="#EAEAEA"/>
</svg>
