<svg xmlns="http://www.w3.org/2000/svg" width="434.371" height="63.946" viewBox="0 0 434.371 63.946"><defs><style>.a{fill:#fff;}.b{fill:#2ab5e3;}.c{fill:#eaeaea;}.d{fill:#3a3531;}.e{fill:none;stroke:#3a3531;stroke-miterlimit:10;stroke-width:2px;}.f{fill:#1e1e1e;}.g{opacity:0.1;}.h{opacity:0.5;}</style></defs><g transform="translate(93.826 9.758)"><path class="a" d="M51.651,566.135c.406,1.7-.135,2.381-2.111,2.435-2.246.054-2.706-.731-2.652-2.76.054-1.6.135-2.516,2.246-2.516C51.381,563.239,52.03,564.078,51.651,566.135Z" transform="translate(-46.885 -563.291)"/><g transform="translate(0.056 11.577)"><g transform="translate(194.87)"><g transform="translate(10.916)"><path class="b" d="M816.933,633.52c-2.192,0-4.411-.054-6.6,0-1.461.054-2.435-.054-2.381-2.056.054-1.786.46-2.517,2.381-2.517,4.3.135,8.578.054,12.8.054,2.111,0,3.491-.649,3.815-3.031.325-2.435-.866-3.112-2.977-3.572-4.492-1-8.9-2.246-13.394-3.247-1.975-.46-2.9-1.245-2.977-3.491-.054-7.252,2.056-9.579,9.5-9.579,3.626,0,7.252.054,10.9,0,1.6-.054,2.381.189,2.3,2.056-.054,1.786-.46,2.517-2.381,2.435-3.951-.135-7.928,0-11.879-.054-1.7,0-3.247.135-3.626,2.3-.406,2.517,1.191,2.706,3.031,3.112,4.357.92,8.713,2.111,13.124,3.112,2.111.46,3.031,1.461,2.841,3.572-.135,1.191.054,2.381,0,3.572-.271,4.411-2.841,6.927-7.333,7.2C821.83,633.574,819.4,633.52,816.933,633.52Z" transform="translate(-807.596 -606.076)"/></g><g transform="translate(97.564 0.731)"><path class="b" d="M1140.012,608.81c1.191,0,2.435.054,3.626,0,1.651-.135,2.652.054,2.571,2.192-.054,1.975-.866,2.381-2.571,2.3-2.381-.135-4.817,0-7.252-.054-2.652-.054-3.815,1.326-3.815,3.761V627.1c0,2.652,1.191,4.032,4.032,3.951,2.516-.054,5.087.054,7.6-.054,1.975-.054,1.975,1.055,2.057,2.517.054,1.6-.46,2.057-2.057,2.057-2.706-.135-5.466.054-8.253-.054-4.817-.135-7.983-3.3-8.118-8.064-.054-3.166,0-6.278,0-9.444,0-6.143,3.031-9.173,9.254-9.173C1138.037,608.81,1139.038,608.81,1140.012,608.81Z" transform="translate(-1127.811 -608.776)"/></g><g transform="translate(0 22.269)"><path class="b" d="M770.3,693.467c-2.192.406-3.166-.135-3.031-2.435.135-1.7.054-2.76,2.381-2.652,1.975.135,3.031.406,2.9,2.652C772.462,692.682,772.6,694.2,770.3,693.467Z" transform="translate(-767.254 -688.372)"/></g><g transform="translate(122.517 0.045)"><path class="b" d="M1243.128,621.9V611.48c-1.7-3.3-4.3-5.358-8.253-5.222-2.3.054-4.627-.054-6.927,0-4.9.135-7.712,2.841-7.847,7.712-.135,3.761-.054,7.6,0,11.365.054,4.952,3.247,8.064,8.253,8.172,3.815.054,7.658-.054,11.554.054,1.461,0,2.192-.189,2.111-1.921-.054-1.6-.054-2.706-2.246-2.571-3.707.135-7.468,0-11.23.054-2.435,0-3.626-1.191-3.761-3.572-.054-1.191,0-2.381,0-3.437C1231.032,622.358,1237.121,623.008,1243.128,621.9Zm-18.346-6.548c.189-2.652.6-4.762,3.951-4.627,2.192.054,4.357,0,6.548,0,3.707.054,3.031,2.76,3.3,5.087.271,2.76-1.651,2.111-3.166,2.192-1.191.054-2.381,0-3.626,0h-3.3C1226.676,618,1224.457,618.651,1224.782,615.35Z" transform="translate(-1220.026 -606.242)"/></g><g transform="translate(41.467 0.052)"><path class="b" d="M943.068,613.584c-.135-4.411-2.706-7.062-7.2-7.252-4.167-.135-8.307,0-12.528-.054-2.192-.054-2.841,1-2.841,2.977.054,11.69.054,23.433,0,35.123,0,1.921.6,2.3,2.381,2.3,1.84,0,2.517-.46,2.435-2.381-.135-3.9-.054-7.793-.054-11.96,3.437,1.84,6.927,1.245,10.418,1.109,4.492-.189,7.252-3.166,7.333-7.6C943.2,621.837,943.2,617.751,943.068,613.584Zm-8.2,15.586c-9.768-.054-9.633,1.191-9.5-8.767v-1.651c0-8.064,0-8.064,8.118-8.064,4.681,0,4.952.271,4.952,5.006v9.714C938.386,627.844,937.331,629.224,934.869,629.17Z" transform="translate(-920.5 -606.269)"/></g><g transform="translate(69.283 0.055)"><path class="b" d="M1045.7,630.368c-.135-2.571,0-5.222,0-7.793,0-2.841.054-5.6,0-8.443-.135-4.952-2.841-7.658-7.793-7.793-3.031-.054-6.142.054-9.254-.054-1.6-.054-2.3.271-2.246,2.111.054,1.786.46,2.517,2.435,2.435,3.031-.135,6.143-.135,9.254,0,2.381.135,3.031,1.7,3.031,3.815,0,2.571-1.975,1.461-3.112,1.515-2.3.189-4.627-.054-6.927.054-5.006.325-7.847,3.707-7.793,9.038.054,4.952,3.166,8.253,8.118,8.388,3.707.054,7.468-.054,11.23.054C1045.108,633.8,1045.757,632.668,1045.7,630.368Zm-5.276-1.786c-2.841,1.191-6.657.649-9.958.271-2.435-.271-2.571-2.652-2.435-4.681.135-2.111,1.109-3.491,3.355-3.572,3.112-.054,6.278,0,9.5,0a1.268,1.268,0,0,1,.135.649C1040.751,623.82,1042.212,627.852,1040.426,628.582Z" transform="translate(-1023.297 -606.28)"/></g></g><g transform="translate(98.035 0.02)"><path class="a" d="M428.6,610.655v21.458c0,2.192-1.6,1.245-2.571,1.38-1.326.189-2.246,0-2.246-1.786.054-6.061-.054-12.15.054-18.211.054-2.246-.6-2.977-2.9-2.9-6.792.054-6.792-.054-6.792,6.467,0,4.762-.135,9.579.054,14.314.054,2.111-.92,2.192-2.571,2.192-1.6,0-2.3-.271-2.246-2.111.135-7.062.054-14.071.054-21.133,0-2.76,1.461-4.167,4.3-4.167,6.927,0,13.8-.054,20.727.054a7.647,7.647,0,0,1,7.847,7.6c.135,5.953-.054,11.96.135,17.886.054,2.246-1.191,1.786-2.517,1.84-1.6.135-2.381-.189-2.381-2.056.135-5.087.054-10.174.054-15.316,0-5.087-.541-5.547-5.6-5.547C430.85,610.655,429.66,610.655,428.6,610.655Z" transform="translate(-409.389 -606.15)"/></g><g transform="translate(165.736 0.057)"><path class="a" d="M668.926,633.673h-6.278c-1.38,0-2.841.46-2.76-1.921.054-2.057.731-2.571,2.706-2.516,4.3.135,8.578.054,12.8,0,2.381,0,3.491-1.109,3.572-3.626.054-1.786-.6-2.435-2.246-2.841-4.3-1-8.442-2.3-12.8-3.031-3.355-.6-4.546-2.056-4.3-5.412.325-5.412,2.652-7.928,8.118-7.982,4.167-.054,8.307.054,12.474-.054,1.6-.054,2.111.406,1.975,1.975-.135,1.38.054,2.571-1.975,2.517-4.167-.135-8.307,0-12.528-.054-1.84,0-3.166.406-3.355,2.571-.189,2.111,1,2.435,2.652,2.76,3.626.731,7.252,1.7,10.9,2.571,5.6,1.326,5.6,1.326,5.466,7.008-.135,5.141-2.76,7.793-7.928,7.928h-1.326C672.417,633.673,670.631,633.673,668.926,633.673Z" transform="translate(-659.587 -606.285)"/></g><g transform="translate(0 0.511)"><path class="a" d="M51.858,621.747c0,3.707-.135,7.387.054,11.013.054,1.84-.649,2.111-2.246,2.111-1.651,0-2.571-.135-2.571-2.192.135-7.6.135-15.18,0-22.784-.054-2.192,1.109-1.84,2.435-1.921,1.515-.054,2.435.054,2.381,1.975C51.722,613.954,51.858,617.85,51.858,621.747Z" transform="translate(-47.093 -607.964)"/></g><g transform="translate(41.396 0.083)"><path class="a" d="M222.6,608.93c0-1.786-.785-2.571-2.571-2.516-4.3.054-8.578-.135-12.8.054-4.086.189-6.873,2.841-7.008,6.792-.189,4.546-.189,9.119,0,13.611.135,3.437,2.192,6.142,5.358,6.548,4.032.541,8.253,1.191,12.339-1.109v5.6c-.054,3.491-.92,4.357-4.492,4.411-3.3,0-6.6.054-9.823,0-1.975,0-1.515,1.38-1.6,2.516-.054,1.191,0,2.057,1.651,1.975,3.815-.135,7.658.054,11.473-.054a7.514,7.514,0,0,0,7.468-7.252C222.649,629.251,222.6,619.077,222.6,608.93Zm-4.762,17.02c-.189,3.166-1.326,3.491-9.119,3.355-2.517,0-3.951-.785-3.951-3.491.054-3.761.054-7.6,0-11.365,0-2.381,1-3.707,3.491-3.626h.649c8.9-.189,8.9-.189,8.9,8.578C217.833,621.593,217.968,623.758,217.833,625.95Z" transform="translate(-200.075 -606.381)"/></g><g transform="translate(136.908 0.041)"><path class="a" d="M567.838,622.4c9.119.054,9.119,0,8.388-8.9-.325-4.3-3.031-6.927-7.468-7.2-2.516-.135-5.006-.054-7.6,0-5.087.135-7.928,2.841-8.064,7.928-.054,3.707-.054,7.387,0,11.013.054,5.141,3.166,8.253,8.388,8.388,3.707.054,7.468,0,11.148.054,1.515,0,2.435-.054,2.3-2.057-.054-1.7-.325-2.571-2.381-2.516-3.707.135-7.468.054-11.148.054-2.435,0-3.626-1.245-3.626-3.626v-3.626C561.317,622.807,564.537,622.4,567.838,622.4ZM557.8,615.338c.189-2.652.6-4.763,3.951-4.627,2.192.054,4.357,0,6.548,0,3.707.054,3.112,2.76,3.3,5.087.271,2.76-1.651,2.111-3.166,2.192-1.191.054-2.381,0-3.626,0h-3.3C559.72,617.99,557.555,618.639,557.8,615.338Z" transform="translate(-553.05 -606.226)"/></g><g transform="translate(68.511 0.078)"><path class="a" d="M322.666,622.583c0-2.9.135-5.872,0-8.767-.189-4.546-2.9-7.2-7.522-7.387-3.031-.135-6.142.054-9.254-.054-1.651-.054-2.571.054-2.517,2.192.054,1.921.649,2.435,2.517,2.381,2.977-.135,5.953-.054,8.9,0,2.517.054,3.355,1.651,3.3,3.9-.054,2.571-2.057,1.38-3.166,1.461-2.3.189-4.627-.054-6.927.054-4.952.325-7.847,3.761-7.712,9.119.135,4.952,3.247,8.172,8.172,8.307,3.815.054,7.658-.054,11.473.054,1.975.054,2.76-.785,2.706-2.706C322.612,628.184,322.666,625.4,322.666,622.583Zm-12.8,6.575c-3.707,0-4.817-1-4.817-4.167-.054-3.355,1.055-4.3,4.952-4.357,2.3,0,4.627,0,6.873-.054a4.5,4.5,0,0,0,1.055-.325C318.526,629.239,318.526,629.239,309.867,629.158Z" transform="translate(-300.283 -606.365)"/></g><g transform="translate(11.83 0.013)"><path class="a" d="M113.917,614.209a7.916,7.916,0,0,0-7.847-7.982,69.749,69.749,0,0,0-7.522,0,7.75,7.75,0,0,0-7.712,7.658c-.054,2.057,0,4.086,0,6.143,0,1.921-.054,3.9,0,5.818.135,4.952,3.247,7.982,8.253,8.172,2.192.054,4.357.054,6.548,0,5.006-.189,8.172-3.3,8.307-8.172C113.971,622,113.971,618.106,113.917,614.209Zm-4.762,11.825c-.135,3.3-1.38,3.707-9.308,3.626-2.76,0-4.411-1-4.357-3.951.054-1.975,0-3.9,0-5.872-.135-10.364-.6-9.254,10.093-9.254,2.246,0,3.491,1.191,3.572,3.355C109.235,618.024,109.29,622.056,109.154,626.034Z" transform="translate(-90.811 -606.125)"/></g></g></g><g transform="translate(0 5.704)"><g transform="translate(44.028 2.367)"><path class="c" d="M738.44,96.078l-19.387,21.015L699.909,128.64l-1.409-7.609L730.046,97.66l.566.843,5.623-4.5Z" transform="translate(-698.188 -93.619)"/><path class="d" d="M697.313,126.172,695.8,118l.138-.1,31.788-23.555.554.831L733.87,90.7l2.575,2.448-19.629,21.269Zm-.9-7.933,1.3,7.032,18.775-11.316,19.168-20.784-1.813-1.72L728.154,96l-.566-.854Z" transform="translate(-695.8 -90.7)"/><g transform="translate(35.922 1.42)"><path class="d" d="M1008.4,105.794l-.427-.358,1.235-1.49-.208-.219-1.778,1.27-.323-.45,2.159-1.547.912.912Z" transform="translate(-1006.9 -103)"/></g><g transform="translate(1.039 9.388)"><path class="b" d="M704.8,190.59,731.1,172l3.522.543-2.956,2.841-1.975-.566-23.659,16.339Z" transform="translate(-704.8 -172)"/></g><g transform="translate(4.838 20.38)"><path class="b" d="M737.7,276.5l12.089-9.3h4.088l-13.948,10.923Z" transform="translate(-737.7 -267.2)"/></g></g><path class="c" d="M317.9,75.44l17.863,22.331,18.279,12.875,1.94-7.459-29.8-25.576-.612.785-5.3-4.9Z" transform="translate(-317.507 -73.119)"/><path class="d" d="M351.207,108.2,332.536,95.037,314.5,72.475l2.771-2.275,5.254,4.861.612-.785,30.16,25.888ZM332.952,94.656l17.921,12.621,1.8-6.9L323.218,75.1l-.624.8-5.335-4.942L315.3,72.567Z" transform="translate(-314.5 -70.2)"/><g transform="translate(1.686 1.409)"><path class="d" d="M330.509,85.252,329.1,83.278l.958-.878,2.044,1.709-.358.439-1.674-1.4-.219.208,1.12,1.57Z" transform="translate(-329.1 -82.4)"/></g><g transform="translate(9.237 10.15)"><path class="b" d="M422.974,178.526,398.045,158.1l-3.545.289,2.737,3.037,2.021-.427,22.424,17.978Z" transform="translate(-394.5 -158.1)"/></g><g transform="translate(18.313 21.558)"><path class="b" d="M488.584,267.327l-11.408-10.138L473.1,256.9l13.152,11.893Z" transform="translate(-473.1 -256.9)"/></g></g><g transform="translate(34.767 47.607)"><g transform="translate(9.572)"><circle class="b" cx="1.974" cy="1.974" r="1.974" transform="translate(0.416 0.416)"/><path class="d" d="M700.89,437.88a2.39,2.39,0,1,1,2.39-2.39A2.395,2.395,0,0,1,700.89,437.88Zm0-3.937a1.547,1.547,0,1,0,1.547,1.547A1.547,1.547,0,0,0,700.89,433.943Z" transform="translate(-698.5 -433.1)"/></g><g transform="translate(0 0.289)"><circle class="b" cx="1.974" cy="1.974" r="1.974" transform="translate(0.416 0.404)"/><path class="d" d="M617.99,440.38a2.39,2.39,0,1,1,2.39-2.39A2.395,2.395,0,0,1,617.99,440.38Zm0-3.949a1.547,1.547,0,1,0,1.547,1.547A1.547,1.547,0,0,0,617.99,436.431Z" transform="translate(-615.6 -435.6)"/></g></g><g transform="translate(11.714 32.654)"><g transform="translate(38.78 0.012)"><rect class="a" width="10.427" height="3.949" transform="translate(0.371 4.126) rotate(-21.161)"/><path class="d" d="M753.428,311.864l-1.628-4.2,10.242-3.961,1.628,4.2Zm-.9-3.88,1.224,3.152,9.191-3.556-1.224-3.152Z" transform="translate(-751.8 -303.7)"/></g><g transform="translate(34.806 16.121)"><path class="a" d="M726.983,451.906l-6.42-2.817a1.143,1.143,0,0,1-.589-1.49l.531-1.236a1.143,1.143,0,0,1,1.49-.589l6.42,2.817Z" transform="translate(-719.592 -445.395)"/><path class="d" d="M724.93,450.1l-6.686-2.933a1.44,1.44,0,0,1-.739-1.871l.531-1.236a1.393,1.393,0,0,1,.785-.751,1.414,1.414,0,0,1,1.085.012l6.674,2.933Zm-5.577-6.328a.989.989,0,0,0-.312.058.882.882,0,0,0-.473.462l-.531,1.236a.865.865,0,0,0,.45,1.12l6.166,2.7,1.212-2.806-6.166-2.7A.973.973,0,0,0,719.353,443.776Z" transform="translate(-717.389 -443.212)"/></g><g transform="translate(14.647 15.369)"><path class="a" d="M553.906,442.622l-8.706.393v-3.637l9.63-.277a.923.923,0,0,1,.9,1.074l-.843,1.628C554.449,442.345,554.391,442.622,553.906,442.622Z" transform="translate(-544.923 -438.823)"/><path class="d" d="M542.8,441.192v-4.2l9.907-.289h0a1.2,1.2,0,0,1,1.189,1.4l-.012.046-.9,1.732c-.1.127-.185.242-.266.335a1.094,1.094,0,0,1-.935.589Zm.566-3.66V440.6l8.418-.381c.219,0,.254-.046.485-.358.069-.092.162-.208.266-.335l.808-1.559a.662.662,0,0,0-.15-.485.615.615,0,0,0-.473-.219Z" transform="translate(-542.8 -436.7)"/></g><g transform="translate(9.532)"><rect class="a" width="3.949" height="10.427" transform="translate(0.367 4.034) rotate(-68.839)"/><path class="d" d="M508.742,311.764,498.5,307.8l1.628-4.2,10.242,3.961Zm-9.514-4.3,9.191,3.556,1.224-3.152-9.191-3.556Z" transform="translate(-498.5 -303.6)"/></g><g transform="translate(3.734 10.477)"><path class="a" d="M466.428,403.965l-.647-.566a1.624,1.624,0,0,1-.335-2l.254-.473a1.676,1.676,0,0,0-.115-1.778l-.589-.785a.745.745,0,0,0-1.074-.115l-1.432,1.236a1.545,1.545,0,1,1-2.217,1.917l-7.713,6.732a1.638,1.638,0,0,0-.115,2.367l4.088,4.249c.647.681.37,1.547,2.39-.023l7.609-8.452A1.619,1.619,0,0,0,466.428,403.965Z" transform="translate(-451.566 -397.642)"/><path class="d" d="M454.071,412.74a.609.609,0,0,1-.15-.012,1.1,1.1,0,0,1-.716-.612,2.714,2.714,0,0,0-.266-.37l-4.088-4.249a2.024,2.024,0,0,1-.566-1.5,2.048,2.048,0,0,1,.7-1.466l8.152-7.113.231.52a1.131,1.131,0,1,0,1.617-1.4l-.485-.3,1.871-1.617a1.188,1.188,0,0,1,.9-.277,1.125,1.125,0,0,1,.785.45l.589.785a2.106,2.106,0,0,1,.15,2.229l-.254.473a1.215,1.215,0,0,0,.242,1.49l.647.566a2.082,2.082,0,0,1,.681,1.443,1.974,1.974,0,0,1-.577,1.466l-7.655,8.487C454.983,412.463,454.475,412.74,454.071,412.74Zm2.806-13.995-7.344,6.408a1.2,1.2,0,0,0-.416.878,1.165,1.165,0,0,0,.335.878l4.088,4.249a2.147,2.147,0,0,1,.369.508,1.824,1.824,0,0,0,.162.231c.046.012.3-.035,1.259-.785l7.575-8.418a1.2,1.2,0,0,0,.346-.866,1.155,1.155,0,0,0-.4-.843l-.624-.566a2.065,2.065,0,0,1-.427-2.529l.242-.473a1.254,1.254,0,0,0-.081-1.328l-.589-.785a.306.306,0,0,0-.208-.127.354.354,0,0,0-.254.081l-1.051.912a1.95,1.95,0,0,1,.531,1.328,1.981,1.981,0,0,1-1.975,1.974A1.942,1.942,0,0,1,456.877,398.745Z" transform="translate(-448.284 -394.339)"/><g transform="translate(8.2 1.358)"><path class="b" d="M525.143,413.475a1.562,1.562,0,0,0,1.547-1.547,1.533,1.533,0,0,0-.762-1.328l-2.229,1.94A1.612,1.612,0,0,0,525.143,413.475Z" transform="translate(-523.192 -410.08)"/><path class="d" d="M521.251,409.91a1.99,1.99,0,0,1-1.813-1.166l-.138-.289,2.69-2.356.266.15a1.937,1.937,0,0,1,.982,1.7A1.981,1.981,0,0,1,521.251,409.91Zm-.889-1.27a1.134,1.134,0,0,0,2.021-.7,1.12,1.12,0,0,0-.323-.785Z" transform="translate(-519.3 -406.1)"/></g></g><g transform="translate(10.848 17.436)"><path class="c" d="M509.9,463.918l7.355-8.164a1.19,1.19,0,0,0-.37-1.155C516.851,454.588,511.112,456.62,509.9,463.918Z" transform="translate(-509.9 -454.599)"/></g><g transform="translate(0 17.938)"><path class="a" d="M426.155,473.019l-.335-.173a18.366,18.366,0,0,1-5.4-3.8h0c-.981-.681-.878-2.286.2-3.268l2.76-2.54a1.94,1.94,0,0,1,2.483-.312h0a15.721,15.721,0,0,1,4.03,3.014l.473.473a1.958,1.958,0,0,1,.335,2.425l-1.524,2.991C428.545,473.1,427.079,473.666,426.155,473.019Z" transform="translate(-419.302 -462.183)"/><path class="d" d="M423.691,470.481a2.041,2.041,0,0,1-1.108-.323l-.312-.162a18.711,18.711,0,0,1-5.5-3.857,2.006,2.006,0,0,1-.82-1.524,3.005,3.005,0,0,1,1-2.379l2.76-2.54a2.359,2.359,0,0,1,2.991-.358,15.989,15.989,0,0,1,4.1,3.083l.462.462a2.381,2.381,0,0,1,.439,2.921l-1.524,2.991a3.043,3.043,0,0,1-1.905,1.605A2.126,2.126,0,0,1,423.691,470.481ZM421.52,459.8a1.92,1.92,0,0,0-1.236.531l-2.76,2.529a2.156,2.156,0,0,0-.727,1.7,1.172,1.172,0,0,0,.485.912l.058.058a17.975,17.975,0,0,0,5.288,3.718l.4.208a1.25,1.25,0,0,0,1.028.15,2.217,2.217,0,0,0,1.363-1.166l1.524-2.991a1.538,1.538,0,0,0-.219-1.894l-.035-.035-.473-.473a15.023,15.023,0,0,0-3.926-2.933l-.069-.046A.994.994,0,0,0,421.52,459.8Z" transform="translate(-415.949 -458.951)"/></g><g transform="translate(39.518 16.131)"><g transform="translate(0.549 0.473)"><path class="a" d="M773.3,461.487a3.152,3.152,0,0,1-1.524-.508l-7.124-4.388a2.7,2.7,0,0,1-.843-3.545l.393-.785-.554-.289a1.228,1.228,0,0,1-.566-1.663l.762-1.582a1.246,1.246,0,0,1,1.132-.7,1.027,1.027,0,0,1,.531.115l.623.277h0a2.35,2.35,0,0,1,1.917-1.016,1.888,1.888,0,0,1,.727.115l8.649,3.071c1.466.589,2.09,2.055,1.72,3.949l-.058.254a11.168,11.168,0,0,1-3.66,5.5,2.837,2.837,0,0,1-2.125,1.2Z" transform="translate(-762.946 -447.4)"/></g><path class="d" d="M763.829,444.42a1.916,1.916,0,0,1,.566.081l8.648,3.071c1.293.531,1.628,1.859,1.386,3.326l-.058.231a10.718,10.718,0,0,1-3.487,5.208,2.5,2.5,0,0,1-1.72.981,2.6,2.6,0,0,1-1.236-.427l-7.1-4.365a2.174,2.174,0,0,1-.681-2.817l.681-1.328-1.074-.508a.678.678,0,0,1-.312-.9l.762-1.582a.66.66,0,0,1,.623-.37.794.794,0,0,1,.277.058l1.1.531.231-.427a1.555,1.555,0,0,1,1.4-.762m0-1.12a2.8,2.8,0,0,0-2.055.878l-.231-.115a1.852,1.852,0,0,0-.785-.173,1.817,1.817,0,0,0-1.628,1.016l-.762,1.582a1.915,1.915,0,0,0-.081,1.386,1.835,1.835,0,0,0,.935,1.039l.058.023-.139.277a3.249,3.249,0,0,0,1.039,4.249l.023.023.023.023,7.1,4.365h0a3.625,3.625,0,0,0,1.8.589,3.68,3.68,0,0,0,2.506-1.293,11.755,11.755,0,0,0,3.8-5.75l.058-.231v-.046c.427-2.171-.335-3.891-2.055-4.561h-.046l-8.649-3.071h0a1.609,1.609,0,0,0-.912-.208Z" transform="translate(-758.194 -443.3)"/></g><g transform="translate(41.424 18.671)"><path class="b" d="M776.945,466.7l-.393.727a.289.289,0,0,1-.393.115l-.727-.393a.289.289,0,0,1-.116-.393l.393-.727a.289.289,0,0,1,.393-.115l.727.393A.283.283,0,0,1,776.945,466.7Z" transform="translate(-775.213 -465.813)"/><path class="d" d="M775.785,467.147a.3.3,0,0,1-.173-.046l-.727-.393a.357.357,0,0,1-.173-.219.391.391,0,0,1,.035-.277l.393-.727a.357.357,0,0,1,.219-.173.391.391,0,0,1,.277.035l.727.393a.366.366,0,0,1,.173.2.345.345,0,0,1-.035.3l-.393.727a.357.357,0,0,1-.219.173A.319.319,0,0,1,775.785,467.147Zm-.335-1.709a.1.1,0,0,0-.058.012.225.225,0,0,0-.139.115l-.393.727a.2.2,0,0,0-.023.162.225.225,0,0,0,.115.139l.727.393a.208.208,0,0,0,.162.023.225.225,0,0,0,.139-.115l.393-.727a.261.261,0,0,0,.023-.185.168.168,0,0,0-.092-.1l-.739-.393A.187.187,0,0,0,775.451,465.439Z" transform="translate(-774.7 -465.3)"/></g><g transform="translate(1.469 19.907)"><path class="c" d="M437.425,478.563l-.393-.393a12.676,12.676,0,0,0-2.679-2.136,1.114,1.114,0,0,1-.081.589,1.409,1.409,0,0,1-1.917.2,1.728,1.728,0,0,1-.762-.82l-2.194,2a1.754,1.754,0,0,0-.173,2.7,16.043,16.043,0,0,0,4.48,3.152l.277.139a1.829,1.829,0,0,0,2.506-.958l1.236-2.483A1.615,1.615,0,0,0,437.425,478.563Z" transform="translate(-428.669 -476)"/></g><g transform="translate(19.912 17.417)"><path class="c" d="M588.4,455.633h3.545l.785-1.178C592.742,454.443,589.509,454.224,588.4,455.633Z" transform="translate(-588.4 -454.436)"/></g><g transform="translate(35.997 18.325)"><path class="c" d="M727.7,463l.277-.7s3.291,1.27,2.933,2.032Z" transform="translate(-727.7 -462.3)"/></g></g><g transform="translate(53.34 53.011)"><g transform="translate(7.537)"><path class="c" d="M847.654,481.586c0-1.132-3.095-1.686-3.095-1.686-.023,0-.081.023-.115.023.312.254.058,1.074-.531,1.882s-1.351,1.27-1.663,1.039a.33.33,0,0,1-.081-.115,14.347,14.347,0,0,0-.427,1.386c-.277,1.409,2.332,4.5,2.332,4.5A8.157,8.157,0,0,0,847.654,481.586Z" transform="translate(-841.721 -479.9)"/></g><g transform="translate(0 2.275)"><path class="c" d="M776.745,501.69a1.547,1.547,0,0,1,.277-2.09s3.66.473,5.208,2.309l1.178,1.074,2.644,3.637H784.62Z" transform="translate(-776.451 -499.6)"/></g></g><g transform="translate(19.491 31.673)"><g transform="translate(27.943 3.822)"><circle class="b" cx="3.095" cy="3.095" r="3.095" transform="translate(0.566 0.566)"/><path class="d" d="M728.96,335.521a3.66,3.66,0,1,1,3.66-3.66A3.661,3.661,0,0,1,728.96,335.521Zm0-6.2a2.54,2.54,0,1,0,2.54,2.54A2.54,2.54,0,0,0,728.96,329.32Z" transform="translate(-725.3 -328.2)"/></g><g transform="translate(9.353 3.822)"><circle class="b" cx="3.095" cy="3.095" r="3.095" transform="translate(0.566 0.566)"/><path class="d" d="M567.96,335.521a3.66,3.66,0,1,1,3.66-3.66A3.661,3.661,0,0,1,567.96,335.521Zm0-6.2a2.54,2.54,0,1,0,2.54,2.54A2.54,2.54,0,0,0,567.96,329.32Z" transform="translate(-564.3 -328.2)"/></g><circle class="b" cx="2.817" cy="2.817" r="2.817" transform="translate(0.427 0.439)"/><path class="d" d="M486.545,301.589a3.245,3.245,0,1,1,3.245-3.245A3.247,3.247,0,0,1,486.545,301.589Zm0-5.635a2.39,2.39,0,1,0,2.39,2.39A2.395,2.395,0,0,0,486.545,295.954Z" transform="translate(-483.3 -295.1)"/><g transform="translate(38.139)"><circle class="b" cx="2.817" cy="2.817" r="2.817" transform="translate(0.427 0.439)"/><path class="d" d="M816.845,301.589a3.245,3.245,0,1,1,3.245-3.245A3.247,3.247,0,0,1,816.845,301.589Zm0-5.635a2.39,2.39,0,1,0,2.39,2.39A2.395,2.395,0,0,0,816.845,295.954Z" transform="translate(-813.6 -295.1)"/></g></g><g transform="translate(36.973 41.926)"><path class="a" d="M646,397.664h-4.03A2.363,2.363,0,0,1,639.6,395.3v-4.03a2.363,2.363,0,0,1,2.367-2.367H646a2.363,2.363,0,0,1,2.367,2.367v4.03A2.348,2.348,0,0,1,646,397.664Z" transform="translate(-639.034 -388.323)"/><path class="d" d="M641.663,393.8h-4.03a2.937,2.937,0,0,1-2.933-2.933v-4.03a2.937,2.937,0,0,1,2.933-2.933h4.03a2.937,2.937,0,0,1,2.933,2.933v4.03A2.894,2.894,0,0,1,641.663,393.8Zm-4.018-8.752a1.8,1.8,0,0,0-1.8,1.8v4.03a1.8,1.8,0,0,0,1.8,1.8h4.018a1.782,1.782,0,0,0,1.8-1.8v-4.03a1.8,1.8,0,0,0-1.8-1.8Z" transform="translate(-634.7 -383.9)"/><g transform="translate(2.286 3.418)"><ellipse class="d" cx="2.54" cy="1.132" rx="2.54" ry="1.132"/></g></g><g transform="translate(4.619 27.566)"><g transform="translate(66.763 0.597)"><path class="a" d="M942.143,270.722a3.522,3.522,0,1,0-7.044,0,3.456,3.456,0,0,0,1.836,3.071.793.793,0,0,0-.427.589c0,.531.958.981,2.113.981s2.113-.45,2.113-.981a.687.687,0,0,0-.427-.589A3.506,3.506,0,0,0,942.143,270.722Z" transform="translate(-934.823 -266.911)"/><path class="d" d="M936.5,273.429c-1.178,0-2.39-.473-2.39-1.27a.841.841,0,0,1,.231-.554,3.786,3.786,0,0,1,2.159-6.9,3.791,3.791,0,0,1,2.171,6.9.836.836,0,0,1,.219.554C938.889,272.956,937.677,273.429,936.5,273.429Zm0-8.164a3.247,3.247,0,0,0-3.245,3.245,3.192,3.192,0,0,0,1.686,2.817l.416.219-.393.266c-.2.127-.3.254-.3.358,0,.277.727.7,1.836.7s1.836-.427,1.836-.7c0-.115-.092-.231-.289-.346l-.427-.254.439-.231a3.192,3.192,0,0,0,1.686-2.817A3.265,3.265,0,0,0,936.5,265.266Z" transform="translate(-932.7 -264.7)"/></g><g transform="translate(53.796)"><path class="a" d="M838.7,268.052l-1.49-4.191a2.959,2.959,0,0,0-4.03-1.686l-6.9,3.152-.843,1.409v.023c-.081,0-.2-.023-.277-.023a2.252,2.252,0,1,0,0,4.5,2.219,2.219,0,0,0,1.628-.7l.058.139,1.686,1.132,8.279-.589A2.472,2.472,0,0,0,838.7,268.052Z" transform="translate(-822.611 -261.624)"/><path class="d" d="M826.243,270l-1.709-1.132a2.513,2.513,0,0,1-1.594.566,2.54,2.54,0,0,1,0-5.081.393.393,0,0,1,.115.012l.808-1.351,6.986-3.187a3.249,3.249,0,0,1,4.411,1.859l1.5,4.2a2.686,2.686,0,0,1-.254,2.205,2.757,2.757,0,0,1-1.847,1.3h-.035Zm-1.386-1.605,1.536,1.028,8.163-.589a2.211,2.211,0,0,0,1.455-1.039,2.1,2.1,0,0,0,.2-1.744l-1.49-4.191a2.717,2.717,0,0,0-1.5-1.57,2.628,2.628,0,0,0-2.148.046l-6.824,3.118-.762,1.27v.231h-.277c-.058,0-.115-.012-.185-.012-.035,0-.069-.012-.1-.012a1.975,1.975,0,1,0,1.432,3.337l.3-.323Z" transform="translate(-820.4 -259.534)"/></g><g transform="translate(0 0.597)"><path class="a" d="M356.9,270.722a3.522,3.522,0,1,1,7.044,0,3.457,3.457,0,0,1-1.836,3.071.793.793,0,0,1,.427.589c0,.531-.958.981-2.113.981s-2.113-.45-2.113-.981a.687.687,0,0,1,.427-.589A3.506,3.506,0,0,1,356.9,270.722Z" transform="translate(-356.623 -266.911)"/><path class="d" d="M358.3,273.429c-1.178,0-2.39-.473-2.39-1.27a.835.835,0,0,1,.219-.554A3.744,3.744,0,0,1,354.5,268.5a3.8,3.8,0,0,1,7.6,0,3.726,3.726,0,0,1-1.64,3.106.841.841,0,0,1,.231.554C360.7,272.956,359.477,273.429,358.3,273.429Zm0-8.164a3.247,3.247,0,0,0-3.245,3.245,3.192,3.192,0,0,0,1.686,2.817l.439.231-.427.254c-.185.115-.289.231-.289.346,0,.277.727.7,1.836.7s1.836-.427,1.836-.7c0-.1-.1-.231-.3-.358l-.393-.266.416-.219a3.192,3.192,0,0,0,1.686-2.817A3.245,3.245,0,0,0,358.3,265.266Z" transform="translate(-354.5 -264.7)"/></g><g transform="translate(4.09 0.004)"><path class="a" d="M392.406,268.052l1.49-4.191a2.959,2.959,0,0,1,4.03-1.686l6.9,3.152.843,1.409v.023c.081,0,.2-.023.277-.023a2.252,2.252,0,1,1,0,4.5,2.219,2.219,0,0,1-1.628-.7l-.058.139-1.686,1.132-8.279-.589A2.472,2.472,0,0,1,392.406,268.052Z" transform="translate(-392.016 -261.629)"/><path class="d" d="M400.552,270.034l-8.406-.6a2.744,2.744,0,0,1-2.1-3.51v-.012l1.49-4.191a3.249,3.249,0,0,1,4.411-1.859l6.974,3.187.808,1.351c.046,0,.081-.012.115-.012a2.54,2.54,0,1,1-1.593,4.515Zm-8.314-1.166,8.164.589,1.536-1.028.185-.473.3.323a1.975,1.975,0,1,0,1.432-3.337c-.035,0-.069.012-.1.012a.994.994,0,0,1-.185.012h-.277v-.231l-.762-1.27-6.824-3.118a2.627,2.627,0,0,0-2.148-.046,2.716,2.716,0,0,0-1.5,1.57l-1.478,4.215a2.147,2.147,0,0,0,.2,1.744A2.223,2.223,0,0,0,392.238,268.868Z" transform="translate(-389.919 -259.57)"/></g><g transform="translate(55.066 6.093)"><g transform="translate(0.092 0.092)"><circle class="b" cx="1.178" cy="1.178" r="1.178"/></g><g transform="translate(0)"><path class="d" d="M832.67,312.439a1.132,1.132,0,1,1-1.132,1.132,1.133,1.133,0,0,1,1.132-1.132m0-.139a1.27,1.27,0,1,0,1.27,1.27,1.266,1.266,0,0,0-1.27-1.27Z" transform="translate(-831.4 -312.3)"/></g></g><g transform="translate(16.754 6.093)"><g transform="translate(0.092 0.092)"><circle class="b" cx="1.178" cy="1.178" r="1.178"/></g><path class="d" d="M500.87,312.439a1.132,1.132,0,1,1-1.132,1.132,1.149,1.149,0,0,1,1.132-1.132m0-.139a1.27,1.27,0,1,0,1.27,1.27,1.266,1.266,0,0,0-1.27-1.27Z" transform="translate(-499.6 -312.3)"/></g></g><g transform="translate(12.582 29.317)"><g transform="translate(52.421)"><g transform="translate(0 6.42)"><path class="d" d="M877.563,332.331a1.385,1.385,0,0,1,.035-1.132,1.18,1.18,0,0,1,.993-.5l3.834-.358a1.312,1.312,0,0,1,1.189.242,1.278,1.278,0,0,1,.139,1.328l-.543-.162c.115-.381.115-.658-.012-.774-.162-.162-.543-.115-.67-.081l-.046.012-3.857.37c-.289.023-.473.092-.554.231a.823.823,0,0,0,0,.624Z" transform="translate(-877.454 -330.299)"/></g><g transform="translate(0.894)"><path class="d" d="M887.5,281.663l-.554-.069c.012-.046.6-5.092-1.744-6.4l.277-.5C888.133,276.19,887.521,281.443,887.5,281.663Z" transform="translate(-885.2 -274.7)"/></g></g><g transform="translate(0 0.012)"><g transform="translate(0 6.397)"><path class="d" d="M429.788,332.242l-.52-.219a.772.772,0,0,0,0-.624c-.081-.139-.266-.208-.554-.231l-3.914-.37c-.127-.035-.508-.081-.67.081-.115.127-.115.4-.012.774l-.543.162a1.078,1.078,0,0,1,1.328-1.57l3.833.37a1.174,1.174,0,0,1,.981.5A1.221,1.221,0,0,1,429.788,332.242Z" transform="translate(-423.468 -330.199)"/></g><g transform="translate(3.172)"><path class="d" d="M451.015,281.751c-.023-.219-.635-5.473,2.032-6.951l.277.5c-2.344,1.3-1.755,6.339-1.744,6.4Z" transform="translate(-450.939 -274.8)"/></g></g><g transform="translate(11.352 23.19)"><path class="d" d="M522.346,481.364a2.1,2.1,0,0,1-.566-1.443,1.881,1.881,0,0,1,.774-1.339l2.806-2.806a.9.9,0,0,1,.762-.219c.346.069.623.358.843.843l-.52.231c-.139-.3-.3-.485-.45-.52a.378.378,0,0,0-.266.081L522.9,479.02a1.35,1.35,0,0,0-.577.935,1.511,1.511,0,0,0,.4,1.016Z" transform="translate(-521.778 -475.538)"/></g><g transform="translate(40.821 28.012)"><path class="d" d="M782.427,521.9l-.254-.508c.266-.127.577-.346.6-.612.023-.358-.45-.762-.624-.878l-3.36-1.963a.436.436,0,0,0-.381-.081c-.4.092-.808.647-.924.831L777,518.4a2.452,2.452,0,0,1,1.282-1.085,1.065,1.065,0,0,1,.808.15l3.36,1.963c.1.069.935.647.889,1.386A1.41,1.41,0,0,1,782.427,521.9Z" transform="translate(-777 -517.294)"/></g><g transform="translate(47.06 22.494)"><path class="d" d="M834.86,480.739a9.379,9.379,0,0,1-3.81-5.358l-.012-.046c-.173-2.968,2.471-5.242,2.76-5.485.346-.381,1.466-.358,1.928-.335l-.035.566a3.394,3.394,0,0,0-1.478.15l-.046.046c-.023.023-2.714,2.24-2.575,5.011a8.937,8.937,0,0,0,3.568,4.988Z" transform="translate(-831.03 -469.504)"/></g><g transform="translate(20.996 12.932)"><path class="e" d="M605.3,386.7" transform="translate(-605.3 -386.7)"/></g></g><g transform="translate(32.539 35.839)"><path class="a" d="M615.86,336.187l-6,.2-6-.2a2.525,2.525,0,0,0-2.644,2.841l.624,4.4a2.794,2.794,0,0,0,2.39,2.229h11.27a2.78,2.78,0,0,0,2.39-2.229l.624-4.4A2.563,2.563,0,0,0,615.86,336.187Z" transform="translate(-600.595 -335.608)"/><path class="d" d="M611.218,341.786H599.89a3.337,3.337,0,0,1-2.91-2.667l-.012-.046-.612-4.376a2.686,2.686,0,0,1,.612-2.309,3.326,3.326,0,0,1,2.61-1.2l5.981.2,5.993-.2a3.361,3.361,0,0,1,2.621,1.247,2.632,2.632,0,0,1,.589,2.263l-.624,4.411a3.325,3.325,0,0,1-2.91,2.667Zm-11.27-1.12h11.223a2.213,2.213,0,0,0,1.859-1.767l.624-4.422a1.565,1.565,0,0,0-.358-1.328,2.269,2.269,0,0,0-1.732-.831l-6.016.2h-.023l-6-.2a2.194,2.194,0,0,0-1.709.785,1.582,1.582,0,0,0-.369,1.363l.011.046.612,4.376A2.263,2.263,0,0,0,599.948,340.666Z" transform="translate(-596.299 -331.184)"/><g transform="translate(7.286 0.498)"><ellipse class="d" cx="1.974" cy="0.704" rx="1.974" ry="0.704"/></g></g><g transform="translate(33.589 35.806)"><g transform="translate(0 5.485)"><path class="d" d="M605.435,379.231l-.035-.208a55.466,55.466,0,0,1,16.35,0l-.035.208A55.426,55.426,0,0,0,605.435,379.231Z" transform="translate(-605.4 -378.4)"/></g><g transform="translate(5.138)"><path class="d" d="M653.041,333.579a14.775,14.775,0,0,1-1.547-.092l-.6-.081h0a1,1,0,0,1-.993-1.016v-.473a1.018,1.018,0,0,1,1.016-1.016h4.145a1.018,1.018,0,0,1,1.016,1.016v.473a1.023,1.023,0,0,1-1,1.016l-.635.081A10.918,10.918,0,0,1,653.041,333.579Zm-2.125-2.4a.724.724,0,0,0-.727.727v.473a.724.724,0,0,0,.727.727l.612.081a10.775,10.775,0,0,0,2.864,0l.67-.081a.724.724,0,0,0,.727-.727V331.9a.724.724,0,0,0-.727-.727Z" transform="translate(-649.9 -330.9)"/></g></g><g transform="translate(24.225 18.521)"><path class="a" d="M532.41,194.6l-2.309-.393a1.007,1.007,0,0,1-.9-1.016V187.67a1.033,1.033,0,0,1,.9-1.016l2.586-.254Z" transform="translate(-528.634 -185.8)"/><path class="d" d="M528.618,190.668l-2.933-.5a1.584,1.584,0,0,1-1.386-1.57v-5.519a1.585,1.585,0,0,1,1.4-1.57l3.233-.312Zm-.854-8.244-1.951.2a.47.47,0,0,0-.393.45v5.519a.443.443,0,0,0,.4.45h.035l1.674.289Z" transform="translate(-524.3 -181.2)"/><g transform="translate(30.518 0.023)"><path class="a" d="M793.877,194.775l2.309-.393a1.007,1.007,0,0,0,.9-1.016v-5.519a1.032,1.032,0,0,0-.9-1.016L793.6,186.6Z" transform="translate(-793.023 -186)"/><path class="d" d="M788.923,190.845,788.6,181.4l3.221.277a1.613,1.613,0,0,1,1.42,1.57v5.519a1.574,1.574,0,0,1-1.386,1.57Zm.843-8.221.242,6.893,1.709-.289a.451.451,0,0,0,.4-.45v-5.519a.47.47,0,0,0-.4-.45Z" transform="translate(-788.6 -181.4)"/></g></g><g transform="translate(38.982)"><g transform="translate(0.843 0.843)"><g transform="translate(0.566 0.566)"><circle class="b" cx="1.409" cy="1.409" r="1.409"/></g><path class="a" d="M661.375,29.232a.843.843,0,1,1-.843.843.833.833,0,0,1,.843-.843m0-1.132a1.974,1.974,0,1,0,1.975,1.974,1.966,1.966,0,0,0-1.975-1.974Z" transform="translate(-659.4 -28.1)"/></g><path class="d" d="M654.917,26.435a2.817,2.817,0,1,1,2.817-2.817A2.829,2.829,0,0,1,654.917,26.435Zm0-3.949a1.132,1.132,0,1,0,1.132,1.132A1.133,1.133,0,0,0,654.917,22.486Z" transform="translate(-652.1 -20.8)"/><g transform="translate(1.686 4.503)"><rect class="d" width="2.252" height="3.66"/></g></g><g transform="translate(27.132 6.466)"><path class="a" d="M582.515,96.026a14.088,14.088,0,1,0-28.174,0c0,3.441-.335,8.117,1.686,10.565,2.586,3.129,8,3.66,12.39,3.66s9.8-.531,12.39-3.66C582.85,104.131,582.515,99.455,582.515,96.026Z" transform="translate(-553.761 -81.223)"/><path class="d" d="M564.144,106.383c-6.478,0-10.669-1.27-12.828-3.868-1.917-2.309-1.871-6.374-1.824-9.63,0-.45.012-.878.012-1.293a14.648,14.648,0,1,1,29.294,0c0,.416,0,.854.012,1.293.035,3.256.081,7.309-1.824,9.63C574.813,105.124,570.622,106.383,564.144,106.383Zm0-28.451a13.709,13.709,0,0,0-13.51,13.66c0,.416,0,.854-.012,1.3-.035,3.071-.081,6.9,1.57,8.891,1.928,2.321,5.843,3.452,11.962,3.452s10.034-1.132,11.962-3.452c1.651-2,1.6-5.82,1.57-8.891,0-.45-.011-.889-.011-1.3A13.737,13.737,0,0,0,564.144,77.932Z" transform="translate(-549.477 -76.8)"/></g><g transform="translate(29.066 8.729)"><g transform="translate(0 0)"><path class="c" d="M573.659,106.145a19.158,19.158,0,0,1,2.586-9.745,12.9,12.9,0,0,0-10,12.563c0,3.095-.312,7.355,1.524,9.572,2.332,2.84,7.24,3.291,11.212,3.325a30.5,30.5,0,0,0,3.21-.139C577.181,119.078,573.659,113.108,573.659,106.145Z" transform="translate(-566.227 -96.4)"/></g></g><g transform="translate(30.252 6.432)"><path class="f" d="M585,103.32h14.48a3.592,3.592,0,0,0,3.6-3.6V86.369a13.913,13.913,0,0,0-21.685.254V99.694A3.6,3.6,0,0,0,585,103.32Z" transform="translate(-580.834 -80.746)"/><path class="d" d="M595.148,99.64h-14.48a4.186,4.186,0,0,1-4.168-4.191V82.181l.127-.15a14.478,14.478,0,0,1,22.551-.266l.139.162V95.483A4.171,4.171,0,0,1,595.148,99.64ZM577.62,82.574V95.437a3.026,3.026,0,0,0,3.037,3.071h14.491a3.04,3.04,0,0,0,3.037-3.037V82.331a13.358,13.358,0,0,0-20.565.242Z" transform="translate(-576.5 -76.5)"/><g class="g" transform="translate(8.845 2.177)"><path class="a" d="M653.1,95.478s11.293,8.314,9.607,18.59a1.964,1.964,0,0,0,2.39-2.09V99.843S661.552,94.5,653.1,95.478Z" transform="translate(-653.1 -95.358)"/></g></g><g transform="translate(34.213 10.993)"><g transform="translate(0 6.755)"><path class="b" d="M613.144,175.458a2.462,2.462,0,0,1,2.333,2.136,3.527,3.527,0,0,0,.058-.473,2.379,2.379,0,1,0-4.734,0,1.967,1.967,0,0,0,.058.473A2.388,2.388,0,0,1,613.144,175.458Z" transform="translate(-610.8 -174.5)"/></g><g transform="translate(10.277 6.77)"><path class="b" d="M702.375,175.6a2.418,2.418,0,0,1,2.032,2.425,2.836,2.836,0,0,0,.115-.473,2.483,2.483,0,0,0-2-2.9,2.511,2.511,0,0,0-2.7,2.286,3.49,3.49,0,0,0-.023.473A2.4,2.4,0,0,1,702.375,175.6Z" transform="translate(-699.8 -174.633)"/></g><g class="h" transform="translate(11.905)"><path class="a" d="M714.964,118.842l-.7-.624a1.107,1.107,0,0,1-.081-1.547l.277-.312a1.107,1.107,0,0,1,1.547-.081l.7.624a1.107,1.107,0,0,1,.081,1.547l-.277.312A1.1,1.1,0,0,1,714.964,118.842Z" transform="translate(-713.902 -116.002)"/></g></g><g transform="translate(37.896 38.959)"><path class="a" d="M650.2,364.665l-1.016.115a17.361,17.361,0,0,1-3.464,0l-1.016-.115a.628.628,0,0,1-.623-.624l-.277-3.834a.628.628,0,0,1,.624-.624l.878-.081a22.727,22.727,0,0,1,4.342,0l.878.081a.628.628,0,0,1,.623.624l-.277,3.834A.714.714,0,0,1,650.2,364.665Z" transform="translate(-643.673 -359.261)"/><path class="d" d="M646.476,363.939c-.589,0-1.166-.023-1.744-.081l-1.016-.115h0a.765.765,0,0,1-.739-.762l-.277-3.822a.771.771,0,0,1,.762-.774l.854-.081a22.963,22.963,0,0,1,4.365,0l.878.081h0a.774.774,0,0,1,.75.762l-.277,3.845a.812.812,0,0,1-.785.751l-1,.115C647.642,363.916,647.065,363.939,646.476,363.939Zm.012-5.45c-.716,0-1.443.035-2.159.1l-.878.081a.49.49,0,0,0-.5.485l.277,3.822a.486.486,0,0,0,.473.485l1.028.115a17.137,17.137,0,0,0,3.441,0l1.028-.115a.534.534,0,0,0,.508-.485l.277-3.833a.483.483,0,0,0-.473-.473l-.889-.081C647.931,358.523,647.215,358.489,646.487,358.489Z" transform="translate(-642.7 -358.2)"/></g><g transform="translate(6.473 29.51)"><g transform="translate(31.953 18.201)"><path class="c" d="M647.334,434a2.117,2.117,0,0,0,2.367,2.679A3.683,3.683,0,0,1,647.334,434Z" transform="translate(-647.286 -434)"/></g><g transform="translate(28.283 12.981)"><path class="c" d="M615.5,389.387a2.118,2.118,0,0,0,2.055,1.917h2.309l-2.194-.647-.231-1.8C617.451,388.821,616.066,388.544,615.5,389.387Z" transform="translate(-615.5 -388.785)"/></g><g transform="translate(32.371 10.393)"><path class="c" d="M650.9,366.38l.277,3.834a12.284,12.284,0,0,0,5.208,0s-3.949-.37-3.949-.935C652.447,369.29,652.447,366.276,650.9,366.38Z" transform="translate(-650.9 -366.377)"/></g><g transform="translate(48.571 6.539)"><path class="c" d="M791.2,335.54l3.095-1.132L793.567,333C793.59,333,791.477,333.843,791.2,335.54Z" transform="translate(-791.2 -333)"/></g><g transform="translate(19.08 6.401)"><path class="c" d="M535.8,333.209l.7-1.409a4.871,4.871,0,0,1,2.032,2.425Z" transform="translate(-535.8 -331.8)"/></g><g transform="translate(56.353 3.902)"><path class="c" d="M860.113,313.79l-.982-.785-.531-1.328s2.055-2,4.168-1.409c0,0,.566,1.409.231,1.974l-2.136.427Z" transform="translate(-858.6 -310.159)"/></g><g transform="translate(62.219 3.127)"><path class="c" d="M909.411,306.014s.427-1.386,0-1.836c0,0,3.487-1.074,4.5-.624,0,0,1.155,2.136.369,3.129a2.148,2.148,0,0,1-1.524.7s.081-1.663-1.27-1.409H909.4v.035Z" transform="translate(-909.4 -303.445)"/></g><g transform="translate(67.046)"><path class="c" d="M951.2,276.429l1.386,3.833s.7,2,0,2.621c0,0,.878.023,1.212-.531,0,0,.231-.566-.427-.566,0,0,2.113-1.132.727-2.39C954.1,279.385,952.47,275.863,951.2,276.429Z" transform="translate(-951.2 -276.367)"/></g><g transform="translate(10.255 4.288)"><path class="c" d="M462.074,316.548s-.393-1.074-1.132-.935l-1.386-.231a2.136,2.136,0,0,1,.081-1.882s3.972,1.132,3.245,2.113C462.917,315.613,463.09,316.2,462.074,316.548Z" transform="translate(-459.369 -313.5)"/></g><g transform="translate(3.221 3.002)"><path class="c" d="M404.053,305.173a11.192,11.192,0,0,1,.173-2.113,35.885,35.885,0,0,0-5.011-.681l-.762,1.836a2.213,2.213,0,0,0,1.328,2.252h1.132s-.231-1.409,1.628-1.132C402.529,305.335,404.019,305.843,404.053,305.173Z" transform="translate(-398.447 -302.363)"/></g><g transform="translate(0 1.317)"><path class="c" d="M372.5,292.974s-1.27-.254-1.27-.531a3.073,3.073,0,0,0,.647-.566s-1.628-.624-1.27-1.72c0,0,.312-3.095,2.737-2.229a16.82,16.82,0,0,0-.82,3.129A2.658,2.658,0,0,0,372.5,292.974Z" transform="translate(-370.555 -287.776)"/></g></g></svg>